<svg width="1920" height="125" viewBox="0 0 1920 125" fill="none" xmlns="http://www.w3.org/2000/svg">
<rect x="-2" y="-2" width="120.753" height="41.9178" rx="20.9589" transform="matrix(-5.17926e-08 -1 -1 3.68911e-08 636.332 120.754)" fill="#29193E" stroke="#29193E" stroke-width="4" stroke-linejoin="round"/>
<rect x="-2" y="-2" width="84.1237" height="41.9178" rx="20.9589" transform="matrix(-5.17926e-08 -1 -1 3.68911e-08 636.332 84.1239)" fill="#D8C1F7" stroke="#29193E" stroke-width="4" stroke-linejoin="round"/>
<rect x="-2" y="-2" width="36.8767" height="41.9178" rx="18.4383" transform="matrix(-5.17926e-08 -1 -1 3.68911e-08 636.332 36.877)" fill="#8C74B7" stroke="#29193E" stroke-width="4" stroke-linejoin="round"/>
<rect x="598.705" y="2.00012" width="120.753" height="41.9178" rx="20.9589" transform="rotate(90 598.705 2.00012)" fill="#29193E" stroke="#29193E" stroke-width="4" stroke-linejoin="round"/>
<rect x="598.705" y="38.6298" width="84.1237" height="41.9178" rx="20.9589" transform="rotate(90 598.705 38.6298)" fill="#8C74B7" stroke="#29193E" stroke-width="4" stroke-linejoin="round"/>
<rect x="598.705" y="85.8768" width="36.8767" height="41.9178" rx="18.4383" transform="rotate(90 598.705 85.8768)" fill="#D8C1F7" stroke="#29193E" stroke-width="4" stroke-linejoin="round"/>
<rect x="-2" y="-2" width="120.753" height="41.9178" rx="20.9589" transform="matrix(-5.17926e-08 -1 -1 3.68911e-08 557.077 120.754)" fill="#29193E" stroke="#29193E" stroke-width="4" stroke-linejoin="round"/>
<rect x="-2" y="-2" width="84.1237" height="41.9178" rx="20.9589" transform="matrix(-5.17926e-08 -1 -1 3.68911e-08 557.077 84.1239)" fill="#D8C1F7" stroke="#29193E" stroke-width="4" stroke-linejoin="round"/>
<rect x="-2" y="-2" width="36.8767" height="41.9178" rx="18.4383" transform="matrix(-5.17926e-08 -1 -1 3.68911e-08 557.077 36.877)" fill="#8C74B7" stroke="#29193E" stroke-width="4" stroke-linejoin="round"/>
<rect x="519.449" y="2.00012" width="120.753" height="41.9178" rx="20.9589" transform="rotate(90 519.449 2.00012)" fill="#29193E" stroke="#29193E" stroke-width="4" stroke-linejoin="round"/>
<rect x="519.45" y="38.6298" width="84.1237" height="41.9178" rx="20.9589" transform="rotate(90 519.45 38.6298)" fill="#8C74B7" stroke="#29193E" stroke-width="4" stroke-linejoin="round"/>
<rect x="519.45" y="85.8768" width="36.8767" height="41.9178" rx="18.4383" transform="rotate(90 519.45 85.8768)" fill="#D8C1F7" stroke="#29193E" stroke-width="4" stroke-linejoin="round"/>
<rect x="-2" y="-2" width="120.753" height="41.9178" rx="20.9589" transform="matrix(-5.17926e-08 -1 -1 3.68911e-08 477.822 120.754)" fill="#29193E" stroke="#29193E" stroke-width="4" stroke-linejoin="round"/>
<rect x="-2" y="-2" width="84.1237" height="41.9178" rx="20.9589" transform="matrix(-5.17926e-08 -1 -1 3.68911e-08 477.822 84.1239)" fill="#D8C1F7" stroke="#29193E" stroke-width="4" stroke-linejoin="round"/>
<rect x="-2" y="-2" width="36.8767" height="41.9178" rx="18.4383" transform="matrix(-5.17926e-08 -1 -1 3.68911e-08 477.822 36.877)" fill="#8C74B7" stroke="#29193E" stroke-width="4" stroke-linejoin="round"/>
<rect x="440.194" y="2.00012" width="120.753" height="41.9178" rx="20.9589" transform="rotate(90 440.194 2.00012)" fill="#29193E" stroke="#29193E" stroke-width="4" stroke-linejoin="round"/>
<rect x="440.194" y="38.6298" width="84.1237" height="41.9178" rx="20.9589" transform="rotate(90 440.194 38.6298)" fill="#8C74B7" stroke="#29193E" stroke-width="4" stroke-linejoin="round"/>
<rect x="440.194" y="85.8768" width="36.8767" height="41.9178" rx="18.4383" transform="rotate(90 440.194 85.8768)" fill="#D8C1F7" stroke="#29193E" stroke-width="4" stroke-linejoin="round"/>
<rect x="-2" y="-2" width="120.753" height="41.9178" rx="20.9589" transform="matrix(-5.17926e-08 -1 -1 3.68911e-08 398.566 120.754)" fill="#29193E" stroke="#29193E" stroke-width="4" stroke-linejoin="round"/>
<rect x="-2" y="-2" width="84.1237" height="41.9178" rx="20.9589" transform="matrix(-5.17926e-08 -1 -1 3.68911e-08 398.566 84.1239)" fill="#D8C1F7" stroke="#29193E" stroke-width="4" stroke-linejoin="round"/>
<rect x="-2" y="-2" width="36.8767" height="41.9178" rx="18.4383" transform="matrix(-5.17926e-08 -1 -1 3.68911e-08 398.566 36.877)" fill="#8C74B7" stroke="#29193E" stroke-width="4" stroke-linejoin="round"/>
<rect x="360.938" y="2.00012" width="120.753" height="41.9178" rx="20.9589" transform="rotate(90 360.938 2.00012)" fill="#29193E" stroke="#29193E" stroke-width="4" stroke-linejoin="round"/>
<rect x="360.939" y="38.6298" width="84.1237" height="41.9178" rx="20.9589" transform="rotate(90 360.939 38.6298)" fill="#8C74B7" stroke="#29193E" stroke-width="4" stroke-linejoin="round"/>
<rect x="360.939" y="85.8768" width="36.8767" height="41.9178" rx="18.4383" transform="rotate(90 360.939 85.8768)" fill="#D8C1F7" stroke="#29193E" stroke-width="4" stroke-linejoin="round"/>
<rect x="-2" y="-2" width="120.753" height="41.9178" rx="20.9589" transform="matrix(-5.17926e-08 -1 -1 3.68911e-08 319.311 120.754)" fill="#29193E" stroke="#29193E" stroke-width="4" stroke-linejoin="round"/>
<rect x="-2" y="-2" width="84.1237" height="41.9178" rx="20.9589" transform="matrix(-5.17926e-08 -1 -1 3.68911e-08 319.311 84.1239)" fill="#D8C1F7" stroke="#29193E" stroke-width="4" stroke-linejoin="round"/>
<rect x="-2" y="-2" width="36.8767" height="41.9178" rx="18.4383" transform="matrix(-5.17926e-08 -1 -1 3.68911e-08 319.311 36.8768)" fill="#8C74B7" stroke="#29193E" stroke-width="4" stroke-linejoin="round"/>
<rect x="281.683" y="2.00012" width="120.753" height="41.9178" rx="20.9589" transform="rotate(90 281.683 2.00012)" fill="#29193E" stroke="#29193E" stroke-width="4" stroke-linejoin="round"/>
<rect x="281.684" y="38.6298" width="84.1237" height="41.9178" rx="20.9589" transform="rotate(90 281.684 38.6298)" fill="#8C74B7" stroke="#29193E" stroke-width="4" stroke-linejoin="round"/>
<rect x="281.684" y="85.8767" width="36.8767" height="41.9178" rx="18.4383" transform="rotate(90 281.684 85.8767)" fill="#D8C1F7" stroke="#29193E" stroke-width="4" stroke-linejoin="round"/>
<rect x="-2" y="-2" width="120.753" height="41.9178" rx="20.9589" transform="matrix(-5.17926e-08 -1 -1 3.68911e-08 240.056 120.754)" fill="#29193E" stroke="#29193E" stroke-width="4" stroke-linejoin="round"/>
<rect x="-2" y="-2" width="84.1237" height="41.9178" rx="20.9589" transform="matrix(-5.17926e-08 -1 -1 3.68911e-08 240.056 84.1239)" fill="#D8C1F7" stroke="#29193E" stroke-width="4" stroke-linejoin="round"/>
<rect x="-2" y="-2" width="36.8767" height="41.9178" rx="18.4383" transform="matrix(-5.17926e-08 -1 -1 3.68911e-08 240.056 36.8768)" fill="#8C74B7" stroke="#29193E" stroke-width="4" stroke-linejoin="round"/>
<rect x="202.428" y="2.00012" width="120.753" height="41.9178" rx="20.9589" transform="rotate(90 202.428 2.00012)" fill="#29193E" stroke="#29193E" stroke-width="4" stroke-linejoin="round"/>
<rect x="202.428" y="38.6298" width="84.1237" height="41.9178" rx="20.9589" transform="rotate(90 202.428 38.6298)" fill="#8C74B7" stroke="#29193E" stroke-width="4" stroke-linejoin="round"/>
<rect x="202.428" y="85.8767" width="36.8767" height="41.9178" rx="18.4383" transform="rotate(90 202.428 85.8767)" fill="#D8C1F7" stroke="#29193E" stroke-width="4" stroke-linejoin="round"/>
<rect x="-2" y="-2" width="120.753" height="41.9178" rx="20.9589" transform="matrix(-5.17926e-08 -1 -1 3.68911e-08 160.801 120.754)" fill="#29193E" stroke="#29193E" stroke-width="4" stroke-linejoin="round"/>
<rect x="-2" y="-2" width="84.1237" height="41.9178" rx="20.9589" transform="matrix(-5.17926e-08 -1 -1 3.68911e-08 160.8 84.1239)" fill="#D8C1F7" stroke="#29193E" stroke-width="4" stroke-linejoin="round"/>
<rect x="-2" y="-2" width="36.8767" height="41.9178" rx="18.4383" transform="matrix(-5.17926e-08 -1 -1 3.68911e-08 160.8 36.8771)" fill="#8C74B7" stroke="#29193E" stroke-width="4" stroke-linejoin="round"/>
<rect x="123.173" y="2.00012" width="120.753" height="41.9178" rx="20.9589" transform="rotate(90 123.173 2.00012)" fill="#29193E" stroke="#29193E" stroke-width="4" stroke-linejoin="round"/>
<rect x="123.173" y="38.6298" width="84.1237" height="41.9178" rx="20.9589" transform="rotate(90 123.173 38.6298)" fill="#8C74B7" stroke="#29193E" stroke-width="4" stroke-linejoin="round"/>
<rect x="123.173" y="85.8767" width="36.8767" height="41.9178" rx="18.4383" transform="rotate(90 123.173 85.8767)" fill="#D8C1F7" stroke="#29193E" stroke-width="4" stroke-linejoin="round"/>
<rect x="-2" y="-2" width="120.753" height="41.9178" rx="20.9589" transform="matrix(-5.17926e-08 -1 -1 3.68911e-08 81.5452 120.754)" fill="#29193E" stroke="#29193E" stroke-width="4" stroke-linejoin="round"/>
<rect x="-2" y="-2" width="84.1237" height="41.9178" rx="20.9589" transform="matrix(-5.17926e-08 -1 -1 3.68911e-08 81.5452 84.1241)" fill="#D8C1F7" stroke="#29193E" stroke-width="4" stroke-linejoin="round"/>
<rect x="-2" y="-2" width="36.8767" height="41.9178" rx="18.4383" transform="matrix(-5.17926e-08 -1 -1 3.68911e-08 81.5452 36.877)" fill="#8C74B7" stroke="#29193E" stroke-width="4" stroke-linejoin="round"/>
<rect x="43.9178" y="2.00012" width="120.753" height="41.9178" rx="20.9589" transform="rotate(90 43.9178 2.00012)" fill="#29193E" stroke="#29193E" stroke-width="4" stroke-linejoin="round"/>
<rect x="43.9178" y="38.6298" width="84.1237" height="41.9178" rx="20.9589" transform="rotate(90 43.9178 38.6298)" fill="#8C74B7" stroke="#29193E" stroke-width="4" stroke-linejoin="round"/>
<rect x="43.9178" y="85.8768" width="36.8767" height="41.9178" rx="18.4383" transform="rotate(90 43.9178 85.8768)" fill="#D8C1F7" stroke="#29193E" stroke-width="4" stroke-linejoin="round"/>
<rect x="-2" y="-2" width="120.753" height="41.9178" rx="20.9589" transform="matrix(-5.17926e-08 -1 -1 3.68911e-08 1276.17 120.754)" fill="#29193E" stroke="#29193E" stroke-width="4" stroke-linejoin="round"/>
<rect x="-2" y="-2" width="84.1237" height="41.9178" rx="20.9589" transform="matrix(-5.17926e-08 -1 -1 3.68911e-08 1276.17 84.1239)" fill="#D8C1F7" stroke="#29193E" stroke-width="4" stroke-linejoin="round"/>
<rect x="-2" y="-2" width="36.8767" height="41.9178" rx="18.4383" transform="matrix(-5.17926e-08 -1 -1 3.68911e-08 1276.17 36.877)" fill="#8C74B7" stroke="#29193E" stroke-width="4" stroke-linejoin="round"/>
<rect x="1238.54" y="2.00012" width="120.753" height="41.9178" rx="20.9589" transform="rotate(90 1238.54 2.00012)" fill="#29193E" stroke="#29193E" stroke-width="4" stroke-linejoin="round"/>
<rect x="1238.54" y="38.6298" width="84.1237" height="41.9178" rx="20.9589" transform="rotate(90 1238.54 38.6298)" fill="#8C74B7" stroke="#29193E" stroke-width="4" stroke-linejoin="round"/>
<rect x="1238.54" y="85.8768" width="36.8767" height="41.9178" rx="18.4383" transform="rotate(90 1238.54 85.8768)" fill="#D8C1F7" stroke="#29193E" stroke-width="4" stroke-linejoin="round"/>
<rect x="-2" y="-2" width="120.753" height="41.9178" rx="20.9589" transform="matrix(-5.17926e-08 -1 -1 3.68911e-08 1196.91 120.754)" fill="#29193E" stroke="#29193E" stroke-width="4" stroke-linejoin="round"/>
<rect x="-2" y="-2" width="84.1237" height="41.9178" rx="20.9589" transform="matrix(-5.17926e-08 -1 -1 3.68911e-08 1196.91 84.1239)" fill="#D8C1F7" stroke="#29193E" stroke-width="4" stroke-linejoin="round"/>
<rect x="-2" y="-2" width="36.8767" height="41.9178" rx="18.4383" transform="matrix(-5.17926e-08 -1 -1 3.68911e-08 1196.91 36.877)" fill="#8C74B7" stroke="#29193E" stroke-width="4" stroke-linejoin="round"/>
<rect x="1159.28" y="2.00012" width="120.753" height="41.9178" rx="20.9589" transform="rotate(90 1159.28 2.00012)" fill="#29193E" stroke="#29193E" stroke-width="4" stroke-linejoin="round"/>
<rect x="1159.28" y="38.6298" width="84.1237" height="41.9178" rx="20.9589" transform="rotate(90 1159.28 38.6298)" fill="#8C74B7" stroke="#29193E" stroke-width="4" stroke-linejoin="round"/>
<rect x="1159.28" y="85.8768" width="36.8767" height="41.9178" rx="18.4383" transform="rotate(90 1159.28 85.8768)" fill="#D8C1F7" stroke="#29193E" stroke-width="4" stroke-linejoin="round"/>
<rect x="-2" y="-2" width="120.753" height="41.9178" rx="20.9589" transform="matrix(-5.17926e-08 -1 -1 3.68911e-08 1117.66 120.754)" fill="#29193E" stroke="#29193E" stroke-width="4" stroke-linejoin="round"/>
<rect x="-2" y="-2" width="84.1237" height="41.9178" rx="20.9589" transform="matrix(-5.17926e-08 -1 -1 3.68911e-08 1117.66 84.1239)" fill="#D8C1F7" stroke="#29193E" stroke-width="4" stroke-linejoin="round"/>
<rect x="-2" y="-2" width="36.8767" height="41.9178" rx="18.4383" transform="matrix(-5.17926e-08 -1 -1 3.68911e-08 1117.66 36.877)" fill="#8C74B7" stroke="#29193E" stroke-width="4" stroke-linejoin="round"/>
<rect x="1080.03" y="2.00012" width="120.753" height="41.9178" rx="20.9589" transform="rotate(90 1080.03 2.00012)" fill="#29193E" stroke="#29193E" stroke-width="4" stroke-linejoin="round"/>
<rect x="1080.03" y="38.6298" width="84.1237" height="41.9178" rx="20.9589" transform="rotate(90 1080.03 38.6298)" fill="#8C74B7" stroke="#29193E" stroke-width="4" stroke-linejoin="round"/>
<rect x="1080.03" y="85.8768" width="36.8767" height="41.9178" rx="18.4383" transform="rotate(90 1080.03 85.8768)" fill="#D8C1F7" stroke="#29193E" stroke-width="4" stroke-linejoin="round"/>
<rect x="-2" y="-2" width="120.753" height="41.9178" rx="20.9589" transform="matrix(-5.17926e-08 -1 -1 3.68911e-08 1038.4 120.754)" fill="#29193E" stroke="#29193E" stroke-width="4" stroke-linejoin="round"/>
<rect x="-2" y="-2" width="84.1237" height="41.9178" rx="20.9589" transform="matrix(-5.17926e-08 -1 -1 3.68911e-08 1038.4 84.1239)" fill="#D8C1F7" stroke="#29193E" stroke-width="4" stroke-linejoin="round"/>
<rect x="-2" y="-2" width="36.8767" height="41.9178" rx="18.4383" transform="matrix(-5.17926e-08 -1 -1 3.68911e-08 1038.4 36.877)" fill="#8C74B7" stroke="#29193E" stroke-width="4" stroke-linejoin="round"/>
<rect x="1000.77" y="2.00012" width="120.753" height="41.9178" rx="20.9589" transform="rotate(90 1000.77 2.00012)" fill="#29193E" stroke="#29193E" stroke-width="4" stroke-linejoin="round"/>
<rect x="1000.77" y="38.6298" width="84.1237" height="41.9178" rx="20.9589" transform="rotate(90 1000.77 38.6298)" fill="#8C74B7" stroke="#29193E" stroke-width="4" stroke-linejoin="round"/>
<rect x="1000.77" y="85.8768" width="36.8767" height="41.9178" rx="18.4383" transform="rotate(90 1000.77 85.8768)" fill="#D8C1F7" stroke="#29193E" stroke-width="4" stroke-linejoin="round"/>
<rect x="-2" y="-2" width="120.753" height="41.9178" rx="20.9589" transform="matrix(-5.17926e-08 -1 -1 3.68911e-08 959.145 120.754)" fill="#29193E" stroke="#29193E" stroke-width="4" stroke-linejoin="round"/>
<rect x="-2" y="-2" width="84.1237" height="41.9178" rx="20.9589" transform="matrix(-5.17926e-08 -1 -1 3.68911e-08 959.145 84.1239)" fill="#D8C1F7" stroke="#29193E" stroke-width="4" stroke-linejoin="round"/>
<rect x="-2" y="-2" width="36.8767" height="41.9178" rx="18.4383" transform="matrix(-5.17926e-08 -1 -1 3.68911e-08 959.145 36.8768)" fill="#8C74B7" stroke="#29193E" stroke-width="4" stroke-linejoin="round"/>
<rect x="921.517" y="2.00012" width="120.753" height="41.9178" rx="20.9589" transform="rotate(90 921.517 2.00012)" fill="#29193E" stroke="#29193E" stroke-width="4" stroke-linejoin="round"/>
<rect x="921.517" y="38.6298" width="84.1237" height="41.9178" rx="20.9589" transform="rotate(90 921.517 38.6298)" fill="#8C74B7" stroke="#29193E" stroke-width="4" stroke-linejoin="round"/>
<rect x="921.517" y="85.8767" width="36.8767" height="41.9178" rx="18.4383" transform="rotate(90 921.517 85.8767)" fill="#D8C1F7" stroke="#29193E" stroke-width="4" stroke-linejoin="round"/>
<rect x="-2" y="-2" width="120.753" height="41.9178" rx="20.9589" transform="matrix(-5.17926e-08 -1 -1 3.68911e-08 879.89 120.754)" fill="#29193E" stroke="#29193E" stroke-width="4" stroke-linejoin="round"/>
<rect x="-2" y="-2" width="84.1237" height="41.9178" rx="20.9589" transform="matrix(-5.17926e-08 -1 -1 3.68911e-08 879.89 84.1239)" fill="#D8C1F7" stroke="#29193E" stroke-width="4" stroke-linejoin="round"/>
<rect x="-2" y="-2" width="36.8767" height="41.9178" rx="18.4383" transform="matrix(-5.17926e-08 -1 -1 3.68911e-08 879.89 36.8768)" fill="#8C74B7" stroke="#29193E" stroke-width="4" stroke-linejoin="round"/>
<rect x="842.262" y="2.00012" width="120.753" height="41.9178" rx="20.9589" transform="rotate(90 842.262 2.00012)" fill="#29193E" stroke="#29193E" stroke-width="4" stroke-linejoin="round"/>
<rect x="842.262" y="38.6298" width="84.1237" height="41.9178" rx="20.9589" transform="rotate(90 842.262 38.6298)" fill="#8C74B7" stroke="#29193E" stroke-width="4" stroke-linejoin="round"/>
<rect x="842.262" y="85.8767" width="36.8767" height="41.9178" rx="18.4383" transform="rotate(90 842.262 85.8767)" fill="#D8C1F7" stroke="#29193E" stroke-width="4" stroke-linejoin="round"/>
<rect x="-2" y="-2" width="120.753" height="41.9178" rx="20.9589" transform="matrix(-5.17926e-08 -1 -1 3.68911e-08 800.634 120.754)" fill="#29193E" stroke="#29193E" stroke-width="4" stroke-linejoin="round"/>
<rect x="-2" y="-2" width="84.1237" height="41.9178" rx="20.9589" transform="matrix(-5.17926e-08 -1 -1 3.68911e-08 800.634 84.1239)" fill="#D8C1F7" stroke="#29193E" stroke-width="4" stroke-linejoin="round"/>
<rect x="-2" y="-2" width="36.8767" height="41.9178" rx="18.4383" transform="matrix(-5.17926e-08 -1 -1 3.68911e-08 800.634 36.8771)" fill="#8C74B7" stroke="#29193E" stroke-width="4" stroke-linejoin="round"/>
<rect x="763.007" y="2.00012" width="120.753" height="41.9178" rx="20.9589" transform="rotate(90 763.007 2.00012)" fill="#29193E" stroke="#29193E" stroke-width="4" stroke-linejoin="round"/>
<rect x="763.007" y="38.6298" width="84.1237" height="41.9178" rx="20.9589" transform="rotate(90 763.007 38.6298)" fill="#8C74B7" stroke="#29193E" stroke-width="4" stroke-linejoin="round"/>
<rect x="763.007" y="85.8767" width="36.8767" height="41.9178" rx="18.4383" transform="rotate(90 763.007 85.8767)" fill="#D8C1F7" stroke="#29193E" stroke-width="4" stroke-linejoin="round"/>
<rect x="-2" y="-2" width="120.753" height="41.9178" rx="20.9589" transform="matrix(-5.17926e-08 -1 -1 3.68911e-08 721.379 120.754)" fill="#29193E" stroke="#29193E" stroke-width="4" stroke-linejoin="round"/>
<rect x="-2" y="-2" width="84.1237" height="41.9178" rx="20.9589" transform="matrix(-5.17926e-08 -1 -1 3.68911e-08 721.379 84.1241)" fill="#D8C1F7" stroke="#29193E" stroke-width="4" stroke-linejoin="round"/>
<rect x="-2" y="-2" width="36.8767" height="41.9178" rx="18.4383" transform="matrix(-5.17926e-08 -1 -1 3.68911e-08 721.379 36.877)" fill="#8C74B7" stroke="#29193E" stroke-width="4" stroke-linejoin="round"/>
<rect x="683.752" y="2.00012" width="120.753" height="41.9178" rx="20.9589" transform="rotate(90 683.752 2.00012)" fill="#29193E" stroke="#29193E" stroke-width="4" stroke-linejoin="round"/>
<rect x="683.752" y="38.6298" width="84.1237" height="41.9178" rx="20.9589" transform="rotate(90 683.752 38.6298)" fill="#8C74B7" stroke="#29193E" stroke-width="4" stroke-linejoin="round"/>
<rect x="683.752" y="85.8768" width="36.8767" height="41.9178" rx="18.4383" transform="rotate(90 683.752 85.8768)" fill="#D8C1F7" stroke="#29193E" stroke-width="4" stroke-linejoin="round"/>
<rect x="-2" y="-2" width="120.753" height="41.9178" rx="20.9589" transform="matrix(-5.17926e-08 -1 -1 3.68911e-08 1916 120.754)" fill="#29193E" stroke="#29193E" stroke-width="4" stroke-linejoin="round"/>
<rect x="-2" y="-2" width="84.1237" height="41.9178" rx="20.9589" transform="matrix(-5.17926e-08 -1 -1 3.68911e-08 1916 84.1239)" fill="#D8C1F7" stroke="#29193E" stroke-width="4" stroke-linejoin="round"/>
<rect x="-2" y="-2" width="36.8767" height="41.9178" rx="18.4383" transform="matrix(-5.17926e-08 -1 -1 3.68911e-08 1916 36.877)" fill="#8C74B7" stroke="#29193E" stroke-width="4" stroke-linejoin="round"/>
<rect x="1878.37" y="2.00012" width="120.753" height="41.9178" rx="20.9589" transform="rotate(90 1878.37 2.00012)" fill="#29193E" stroke="#29193E" stroke-width="4" stroke-linejoin="round"/>
<rect x="1878.37" y="38.6298" width="84.1237" height="41.9178" rx="20.9589" transform="rotate(90 1878.37 38.6298)" fill="#8C74B7" stroke="#29193E" stroke-width="4" stroke-linejoin="round"/>
<rect x="1878.37" y="85.8768" width="36.8767" height="41.9178" rx="18.4383" transform="rotate(90 1878.37 85.8768)" fill="#D8C1F7" stroke="#29193E" stroke-width="4" stroke-linejoin="round"/>
<rect x="-2" y="-2" width="120.753" height="41.9178" rx="20.9589" transform="matrix(-5.17926e-08 -1 -1 3.68911e-08 1836.74 120.754)" fill="#29193E" stroke="#29193E" stroke-width="4" stroke-linejoin="round"/>
<rect x="-2" y="-2" width="84.1237" height="41.9178" rx="20.9589" transform="matrix(-5.17926e-08 -1 -1 3.68911e-08 1836.74 84.1239)" fill="#D8C1F7" stroke="#29193E" stroke-width="4" stroke-linejoin="round"/>
<rect x="-2" y="-2" width="36.8767" height="41.9178" rx="18.4383" transform="matrix(-5.17926e-08 -1 -1 3.68911e-08 1836.74 36.877)" fill="#8C74B7" stroke="#29193E" stroke-width="4" stroke-linejoin="round"/>
<rect x="1799.12" y="2.00012" width="120.753" height="41.9178" rx="20.9589" transform="rotate(90 1799.12 2.00012)" fill="#29193E" stroke="#29193E" stroke-width="4" stroke-linejoin="round"/>
<rect x="1799.12" y="38.6298" width="84.1237" height="41.9178" rx="20.9589" transform="rotate(90 1799.12 38.6298)" fill="#8C74B7" stroke="#29193E" stroke-width="4" stroke-linejoin="round"/>
<rect x="1799.12" y="85.8768" width="36.8767" height="41.9178" rx="18.4383" transform="rotate(90 1799.12 85.8768)" fill="#D8C1F7" stroke="#29193E" stroke-width="4" stroke-linejoin="round"/>
<rect x="-2" y="-2" width="120.753" height="41.9178" rx="20.9589" transform="matrix(-5.17926e-08 -1 -1 3.68911e-08 1757.49 120.754)" fill="#29193E" stroke="#29193E" stroke-width="4" stroke-linejoin="round"/>
<rect x="-2" y="-2" width="84.1237" height="41.9178" rx="20.9589" transform="matrix(-5.17926e-08 -1 -1 3.68911e-08 1757.49 84.1239)" fill="#D8C1F7" stroke="#29193E" stroke-width="4" stroke-linejoin="round"/>
<rect x="-2" y="-2" width="36.8767" height="41.9178" rx="18.4383" transform="matrix(-5.17926e-08 -1 -1 3.68911e-08 1757.49 36.877)" fill="#8C74B7" stroke="#29193E" stroke-width="4" stroke-linejoin="round"/>
<rect x="1719.86" y="2.00012" width="120.753" height="41.9178" rx="20.9589" transform="rotate(90 1719.86 2.00012)" fill="#29193E" stroke="#29193E" stroke-width="4" stroke-linejoin="round"/>
<rect x="1719.86" y="38.6298" width="84.1237" height="41.9178" rx="20.9589" transform="rotate(90 1719.86 38.6298)" fill="#8C74B7" stroke="#29193E" stroke-width="4" stroke-linejoin="round"/>
<rect x="1719.86" y="85.8768" width="36.8767" height="41.9178" rx="18.4383" transform="rotate(90 1719.86 85.8768)" fill="#D8C1F7" stroke="#29193E" stroke-width="4" stroke-linejoin="round"/>
<rect x="-2" y="-2" width="120.753" height="41.9178" rx="20.9589" transform="matrix(-5.17926e-08 -1 -1 3.68911e-08 1678.23 120.754)" fill="#29193E" stroke="#29193E" stroke-width="4" stroke-linejoin="round"/>
<rect x="-2" y="-2" width="84.1237" height="41.9178" rx="20.9589" transform="matrix(-5.17926e-08 -1 -1 3.68911e-08 1678.23 84.1239)" fill="#D8C1F7" stroke="#29193E" stroke-width="4" stroke-linejoin="round"/>
<rect x="-2" y="-2" width="36.8767" height="41.9178" rx="18.4383" transform="matrix(-5.17926e-08 -1 -1 3.68911e-08 1678.23 36.877)" fill="#8C74B7" stroke="#29193E" stroke-width="4" stroke-linejoin="round"/>
<rect x="1640.61" y="2.00012" width="120.753" height="41.9178" rx="20.9589" transform="rotate(90 1640.61 2.00012)" fill="#29193E" stroke="#29193E" stroke-width="4" stroke-linejoin="round"/>
<rect x="1640.61" y="38.6298" width="84.1237" height="41.9178" rx="20.9589" transform="rotate(90 1640.61 38.6298)" fill="#8C74B7" stroke="#29193E" stroke-width="4" stroke-linejoin="round"/>
<rect x="1640.61" y="85.8768" width="36.8767" height="41.9178" rx="18.4383" transform="rotate(90 1640.61 85.8768)" fill="#D8C1F7" stroke="#29193E" stroke-width="4" stroke-linejoin="round"/>
<rect x="-2" y="-2" width="120.753" height="41.9178" rx="20.9589" transform="matrix(-5.17926e-08 -1 -1 3.68911e-08 1598.98 120.754)" fill="#29193E" stroke="#29193E" stroke-width="4" stroke-linejoin="round"/>
<rect x="-2" y="-2" width="84.1237" height="41.9178" rx="20.9589" transform="matrix(-5.17926e-08 -1 -1 3.68911e-08 1598.98 84.1239)" fill="#D8C1F7" stroke="#29193E" stroke-width="4" stroke-linejoin="round"/>
<rect x="-2" y="-2" width="36.8767" height="41.9178" rx="18.4383" transform="matrix(-5.17926e-08 -1 -1 3.68911e-08 1598.98 36.8768)" fill="#8C74B7" stroke="#29193E" stroke-width="4" stroke-linejoin="round"/>
<rect x="1561.35" y="2.00012" width="120.753" height="41.9178" rx="20.9589" transform="rotate(90 1561.35 2.00012)" fill="#29193E" stroke="#29193E" stroke-width="4" stroke-linejoin="round"/>
<rect x="1561.35" y="38.6298" width="84.1237" height="41.9178" rx="20.9589" transform="rotate(90 1561.35 38.6298)" fill="#8C74B7" stroke="#29193E" stroke-width="4" stroke-linejoin="round"/>
<rect x="1561.35" y="85.8767" width="36.8767" height="41.9178" rx="18.4383" transform="rotate(90 1561.35 85.8767)" fill="#D8C1F7" stroke="#29193E" stroke-width="4" stroke-linejoin="round"/>
<rect x="-2" y="-2" width="120.753" height="41.9178" rx="20.9589" transform="matrix(-5.17926e-08 -1 -1 3.68911e-08 1519.72 120.754)" fill="#29193E" stroke="#29193E" stroke-width="4" stroke-linejoin="round"/>
<rect x="-2" y="-2" width="84.1237" height="41.9178" rx="20.9589" transform="matrix(-5.17926e-08 -1 -1 3.68911e-08 1519.72 84.1239)" fill="#D8C1F7" stroke="#29193E" stroke-width="4" stroke-linejoin="round"/>
<rect x="-2" y="-2" width="36.8767" height="41.9178" rx="18.4383" transform="matrix(-5.17926e-08 -1 -1 3.68911e-08 1519.72 36.8768)" fill="#8C74B7" stroke="#29193E" stroke-width="4" stroke-linejoin="round"/>
<rect x="1482.1" y="2.00012" width="120.753" height="41.9178" rx="20.9589" transform="rotate(90 1482.1 2.00012)" fill="#29193E" stroke="#29193E" stroke-width="4" stroke-linejoin="round"/>
<rect x="1482.1" y="38.6298" width="84.1237" height="41.9178" rx="20.9589" transform="rotate(90 1482.1 38.6298)" fill="#8C74B7" stroke="#29193E" stroke-width="4" stroke-linejoin="round"/>
<rect x="1482.1" y="85.8767" width="36.8767" height="41.9178" rx="18.4383" transform="rotate(90 1482.1 85.8767)" fill="#D8C1F7" stroke="#29193E" stroke-width="4" stroke-linejoin="round"/>
<rect x="-2" y="-2" width="120.753" height="41.9178" rx="20.9589" transform="matrix(-5.17926e-08 -1 -1 3.68911e-08 1440.47 120.754)" fill="#29193E" stroke="#29193E" stroke-width="4" stroke-linejoin="round"/>
<rect x="-2" y="-2" width="84.1237" height="41.9178" rx="20.9589" transform="matrix(-5.17926e-08 -1 -1 3.68911e-08 1440.47 84.1239)" fill="#D8C1F7" stroke="#29193E" stroke-width="4" stroke-linejoin="round"/>
<rect x="-2" y="-2" width="36.8767" height="41.9178" rx="18.4383" transform="matrix(-5.17926e-08 -1 -1 3.68911e-08 1440.47 36.8771)" fill="#8C74B7" stroke="#29193E" stroke-width="4" stroke-linejoin="round"/>
<rect x="1402.84" y="2.00012" width="120.753" height="41.9178" rx="20.9589" transform="rotate(90 1402.84 2.00012)" fill="#29193E" stroke="#29193E" stroke-width="4" stroke-linejoin="round"/>
<rect x="1402.84" y="38.6298" width="84.1237" height="41.9178" rx="20.9589" transform="rotate(90 1402.84 38.6298)" fill="#8C74B7" stroke="#29193E" stroke-width="4" stroke-linejoin="round"/>
<rect x="1402.84" y="85.8767" width="36.8767" height="41.9178" rx="18.4383" transform="rotate(90 1402.84 85.8767)" fill="#D8C1F7" stroke="#29193E" stroke-width="4" stroke-linejoin="round"/>
<rect x="-2" y="-2" width="120.753" height="41.9178" rx="20.9589" transform="matrix(-5.17926e-08 -1 -1 3.68911e-08 1361.21 120.754)" fill="#29193E" stroke="#29193E" stroke-width="4" stroke-linejoin="round"/>
<rect x="-2" y="-2" width="84.1237" height="41.9178" rx="20.9589" transform="matrix(-5.17926e-08 -1 -1 3.68911e-08 1361.21 84.1241)" fill="#D8C1F7" stroke="#29193E" stroke-width="4" stroke-linejoin="round"/>
<rect x="-2" y="-2" width="36.8767" height="41.9178" rx="18.4383" transform="matrix(-5.17926e-08 -1 -1 3.68911e-08 1361.21 36.877)" fill="#8C74B7" stroke="#29193E" stroke-width="4" stroke-linejoin="round"/>
<rect x="1323.59" y="2.00012" width="120.753" height="41.9178" rx="20.9589" transform="rotate(90 1323.59 2.00012)" fill="#29193E" stroke="#29193E" stroke-width="4" stroke-linejoin="round"/>
<rect x="1323.59" y="38.6298" width="84.1237" height="41.9178" rx="20.9589" transform="rotate(90 1323.59 38.6298)" fill="#8C74B7" stroke="#29193E" stroke-width="4" stroke-linejoin="round"/>
<rect x="1323.59" y="85.8768" width="36.8767" height="41.9178" rx="18.4383" transform="rotate(90 1323.59 85.8768)" fill="#D8C1F7" stroke="#29193E" stroke-width="4" stroke-linejoin="round"/>
</svg>
