<svg width="452" height="401" viewBox="0 0 452 401" fill="none" xmlns="http://www.w3.org/2000/svg">
<path d="M136.247 266.616C136.72 269.328 138.5 271.772 141.502 273.852C144.508 275.935 148.675 277.603 153.747 278.751C163.886 281.046 177.442 281.22 191.991 278.684C206.541 276.147 219.238 271.397 228.003 265.806C232.387 263.009 235.744 260.03 237.868 257.053C239.989 254.08 240.836 251.178 240.364 248.465C239.891 245.753 238.111 243.309 235.109 241.229C232.103 239.146 227.936 237.478 222.864 236.33C212.725 234.035 199.169 233.861 184.62 236.397C170.07 238.934 157.373 243.684 148.608 249.275C144.224 252.072 140.867 255.051 138.743 258.028C136.622 261.001 135.775 263.903 136.247 266.616Z" fill="black" stroke="black" stroke-width="2"/>
<path d="M137.114 271.585C137.587 274.298 139.367 276.742 142.368 278.822C145.374 280.904 149.542 282.572 154.614 283.72C164.753 286.016 178.308 286.19 192.858 283.653C207.408 281.117 220.105 276.366 228.869 270.776C233.254 267.979 236.611 264.999 238.735 262.022C240.856 259.049 241.703 256.147 241.23 253.435C240.757 250.722 238.978 248.278 235.976 246.198C232.97 244.116 228.803 242.448 223.731 241.3C213.592 239.004 200.036 238.83 185.486 241.367C170.937 243.903 158.24 248.654 149.475 254.244C145.091 257.041 141.734 260.021 139.61 262.998C137.489 265.971 136.641 268.873 137.114 271.585Z" stroke="black" stroke-width="2"/>
<path d="M137.795 275.489C138.268 278.202 140.047 280.646 143.049 282.726C146.055 284.808 150.222 286.476 155.294 287.625C165.434 289.92 178.989 290.094 193.539 287.557C208.089 285.021 220.786 280.271 229.55 274.68C233.934 271.883 237.291 268.903 239.415 265.926C241.536 262.953 242.384 260.051 241.911 257.339C241.438 254.626 239.659 252.182 236.657 250.102C233.651 248.02 229.484 246.352 224.412 245.204C214.272 242.908 200.717 242.734 186.167 245.271C171.617 247.807 158.92 252.558 150.156 258.149C145.772 260.945 142.415 263.925 140.291 266.902C138.17 269.875 137.322 272.777 137.795 275.489Z" stroke="black" stroke-width="2"/>
<path d="M167.798 245.691C161.78 246.561 161.118 243.704 161.557 241.951C163.779 241.229 171 238.629 174.526 238.126C173.662 238.723 172.417 239.364 175.889 240.816C180.229 242.63 170.272 246.512 177.68 245.959C184.631 245.439 180.581 248.492 178.973 248.884C177.686 249.198 174.837 250.164 173.573 250.608C175.359 247.391 173.162 248.891 169.662 248.049C166.162 247.206 175.32 244.603 167.798 245.691Z" fill="white" stroke="black" stroke-width="2"/>
<path d="M207.994 269.175C214.012 268.305 214.674 271.162 214.234 272.915C212.013 273.638 204.792 276.238 201.265 276.741C202.13 276.143 203.374 275.502 199.902 274.051C195.562 272.237 205.52 268.354 198.112 268.908C191.161 269.427 195.211 266.374 196.819 265.982C198.106 265.668 200.955 264.702 202.219 264.258C200.433 267.476 202.63 265.975 206.13 266.818C209.63 267.661 200.471 270.263 207.994 269.175Z" fill="white" stroke="black" stroke-width="2"/>
<path d="M136.247 266.616C136.72 269.328 138.5 271.772 141.502 273.852C144.508 275.935 148.675 277.603 153.747 278.751C163.886 281.046 177.442 281.22 191.991 278.684C206.541 276.147 219.238 271.397 228.003 265.806C232.387 263.009 235.744 260.03 237.868 257.053C239.989 254.08 240.836 251.178 240.364 248.465C239.891 245.753 238.111 243.309 235.109 241.229C232.103 239.146 227.936 237.478 222.864 236.33C212.725 234.035 199.169 233.861 184.62 236.397C170.07 238.934 157.373 243.684 148.608 249.275C144.224 252.072 140.867 255.051 138.743 258.028C136.622 261.001 135.775 263.903 136.247 266.616Z" stroke="black" stroke-width="2"/>
<path d="M163.8 261.812C163.996 262.937 164.741 264.003 166.109 264.951C167.481 265.901 169.415 266.682 171.812 267.224C176.603 268.308 183.046 268.396 189.988 267.185C196.929 265.975 202.962 263.713 207.104 261.072C209.176 259.75 210.732 258.361 211.701 257.003C212.668 255.648 213.008 254.393 212.812 253.268C212.616 252.143 211.871 251.077 210.503 250.13C209.131 249.18 207.198 248.399 204.8 247.857C200.009 246.773 193.566 246.685 186.625 247.895C179.683 249.105 173.65 251.368 169.508 254.009C167.436 255.331 165.88 256.72 164.911 258.078C163.944 259.432 163.604 260.688 163.8 261.812Z" fill="#8C74B7" stroke="black" stroke-width="2"/>
<path d="M158.784 178.965C158.348 181.461 156.71 183.718 153.93 185.643C151.147 187.572 147.284 189.119 142.576 190.185C133.165 192.315 120.579 192.477 107.065 190.122C93.5514 187.766 81.762 183.354 73.6271 178.165C69.5576 175.569 66.4461 172.806 64.4794 170.049C62.5156 167.297 61.7371 164.619 62.1723 162.123C62.6075 159.626 64.2462 157.37 67.0255 155.444C69.809 153.516 73.6719 151.969 78.3797 150.903C87.7906 148.772 100.377 148.61 113.891 150.966C127.405 153.322 139.194 157.733 147.329 162.923C151.398 165.518 154.51 168.281 156.477 171.038C158.44 173.791 159.219 176.468 158.784 178.965Z" fill="black" stroke="black" stroke-width="2"/>
<path d="M157.978 183.583C157.543 186.08 155.905 188.336 153.125 190.262C150.342 192.19 146.479 193.737 141.771 194.803C132.36 196.934 119.773 197.096 106.26 194.74C92.7463 192.384 80.9569 187.973 72.822 182.783C68.7525 180.188 65.641 177.425 63.6743 174.668C61.7105 171.915 60.932 169.238 61.3672 166.741C61.8024 164.245 63.441 161.988 66.2204 160.063C69.0038 158.134 72.8668 156.587 77.5745 155.521C86.9855 153.391 99.5722 153.229 113.086 155.584C126.599 157.94 138.389 162.352 146.524 167.541C150.593 170.137 153.705 172.9 155.671 175.656C157.635 178.409 158.414 181.087 157.978 183.583Z" stroke="black" stroke-width="2"/>
<path d="M157.346 187.211C156.911 189.707 155.272 191.964 152.493 193.889C149.709 195.818 145.847 197.365 141.139 198.431C131.728 200.561 119.141 200.723 105.628 198.368C92.1139 196.012 80.3246 191.6 72.1897 186.411C68.1202 183.815 65.0086 181.052 63.0419 178.295C61.0781 175.543 60.2996 172.865 60.7348 170.369C61.17 167.872 62.8087 165.616 65.5881 163.69C68.3715 161.761 72.2344 160.214 76.9422 159.149C86.3532 157.018 98.9399 156.856 112.453 159.212C125.967 161.568 137.756 165.979 145.891 171.168C149.961 173.764 153.072 176.527 155.039 179.284C157.003 182.036 157.781 184.714 157.346 187.211Z" stroke="black" stroke-width="2"/>
<path d="M129.535 159.533C135.128 160.342 135.743 157.687 135.334 156.058C133.27 155.386 126.56 152.97 123.283 152.503C124.086 153.058 125.242 153.654 122.016 155.002C117.983 156.688 127.236 160.296 120.352 159.782C113.893 159.299 117.657 162.136 119.151 162.5C120.347 162.792 122.994 163.69 124.169 164.102C122.509 161.112 124.551 162.507 127.803 161.724C131.056 160.941 122.545 158.522 129.535 159.533Z" fill="white" stroke="black" stroke-width="2"/>
<path d="M92.1829 181.356C86.5907 180.547 85.9755 183.202 86.384 184.831C88.4481 185.502 95.1587 187.919 98.4355 188.386C97.6322 187.83 96.4758 187.235 99.7021 185.886C103.735 184.201 94.482 180.593 101.366 181.107C107.825 181.59 104.062 178.753 102.567 178.388C101.372 178.097 98.7239 177.199 97.5494 176.787C99.2093 179.776 97.1675 178.382 93.9151 179.165C90.6626 179.948 99.1732 182.367 92.1829 181.356Z" fill="white" stroke="black" stroke-width="2"/>
<path d="M158.784 178.965C158.348 181.461 156.71 183.718 153.93 185.643C151.147 187.572 147.284 189.119 142.576 190.185C133.165 192.315 120.579 192.477 107.065 190.122C93.5514 187.766 81.762 183.354 73.6271 178.165C69.5576 175.569 66.4461 172.806 64.4794 170.049C62.5156 167.297 61.7371 164.619 62.1723 162.123C62.6075 159.626 64.2462 157.37 67.0255 155.444C69.809 153.516 73.6719 151.969 78.3797 150.903C87.7906 148.772 100.377 148.61 113.891 150.966C127.405 153.322 139.194 157.733 147.329 162.923C151.398 165.518 154.51 168.281 156.477 171.038C158.44 173.791 159.219 176.468 158.784 178.965Z" stroke="black" stroke-width="2"/>
<path d="M133.181 174.501C133.003 175.522 132.326 176.498 131.065 177.372C129.8 178.248 128.012 178.97 125.79 179.473C121.349 180.478 115.371 180.56 108.928 179.437C102.484 178.314 96.8872 176.214 93.0484 173.766C91.127 172.54 89.6895 171.255 88.7955 170.003C87.9045 168.754 87.5975 167.607 87.7755 166.586C87.9535 165.565 88.6306 164.589 89.8916 163.716C91.1566 162.84 92.9441 162.117 95.1667 161.614C99.6075 160.609 105.585 160.527 112.029 161.65C118.472 162.774 124.069 164.874 127.908 167.322C129.829 168.547 131.267 169.832 132.161 171.084C133.052 172.333 133.359 173.48 133.181 174.501Z" fill="#D8C1F7" stroke="black" stroke-width="2"/>
<path fill-rule="evenodd" clip-rule="evenodd" d="M191.326 15.5063L196.119 14.2221C196.929 24.4192 197.936 30.188 203.241 40.8041L203.225 40.8083C203.595 41.2597 203.869 41.7784 204.024 42.3539C204.754 45.0804 202.513 48.0499 199.017 48.9865C195.522 49.923 192.096 48.4721 191.365 45.7457C190.635 43.0192 192.876 40.0497 196.372 39.1131C196.61 39.0492 196.848 38.9964 197.085 38.9544C194.315 32.3794 192.882 27.4758 191.966 21.058L173.478 26.0118C174.306 32.9967 175.762 38.3437 179.885 46.6639C180.463 47.2055 180.884 47.8739 181.09 48.6441C181.821 51.3706 179.58 54.3401 176.084 55.2767C172.589 56.2133 169.163 54.7623 168.432 52.0359C167.702 49.3094 169.943 46.3399 173.439 45.4033C173.611 45.3571 173.783 45.3168 173.955 45.282C170.412 36.8921 169.043 31.235 168.156 21.7399L169.151 21.4732L169.151 21.4732L172.949 20.4557L191.328 15.5309L191.328 15.5272L191.326 15.5063Z" fill="white"/>
<path fill-rule="evenodd" clip-rule="evenodd" d="M184.048 33.1695L188.841 34.4537C184.443 43.6897 182.431 49.1892 181.718 61.0358L181.702 61.0315C181.797 61.6073 181.775 62.1936 181.621 62.7691C180.89 65.4956 177.464 66.9465 173.969 66.0099C170.473 65.0733 168.232 62.1038 168.962 59.3774C169.693 56.6509 173.119 55.2 176.614 56.1366C176.853 56.2005 177.085 56.2738 177.312 56.3559C178.2 49.2765 179.411 44.3134 181.827 38.2977L163.339 33.3439C160.563 39.8067 159.151 45.1653 158.561 54.432C158.79 55.1899 158.821 55.9796 158.615 56.75C157.884 59.4765 154.459 60.9274 150.963 59.9908C147.468 59.0542 145.226 56.0847 145.957 53.3583C146.687 50.6318 150.113 49.1809 153.609 50.1175C153.781 50.1637 153.95 50.2148 154.116 50.2706C155.243 41.2331 156.886 35.6494 160.865 26.983L161.86 27.2497L161.861 27.2497L184.037 33.1919L184.038 33.1901L184.048 33.1695Z" fill="#EFC404"/>
<path fill-rule="evenodd" clip-rule="evenodd" d="M183.155 32.6073L187.948 33.8915C183.551 43.1274 181.538 48.6269 180.825 60.4735L180.809 60.4693C180.904 61.045 180.882 61.6314 180.728 62.2069C179.997 64.9333 176.571 66.3843 173.076 65.4477C169.58 64.5111 167.339 61.5416 168.07 58.8151C168.8 56.0887 172.226 54.6377 175.721 55.5743C175.96 55.6382 176.193 55.7116 176.419 55.7937C177.307 48.7142 178.518 43.7512 180.934 37.7355L162.446 32.7816C159.67 39.2446 158.258 44.6032 157.668 53.8701C157.897 54.6279 157.928 55.4175 157.722 56.1878C156.991 58.9142 153.566 60.3652 150.07 59.4286C146.575 58.492 144.333 55.5225 145.064 52.796C145.794 50.0696 149.22 48.6187 152.716 49.5553C152.888 49.6014 153.057 49.6526 153.223 49.7084C154.35 40.6709 155.993 35.0872 159.972 26.4207L160.968 26.6874L160.968 26.6874L183.145 32.6297L183.145 32.6287L183.155 32.6073Z" fill="black"/>
<path fill-rule="evenodd" clip-rule="evenodd" d="M251.381 125.254L258.401 123.373C259.587 138.308 261.062 146.757 268.832 162.305L268.809 162.312C269.351 162.973 269.752 163.732 269.978 164.575C271.048 168.568 267.766 172.918 262.646 174.289C257.527 175.661 252.509 173.536 251.439 169.543C250.369 165.55 253.652 161.2 258.771 159.829C259.121 159.735 259.469 159.658 259.817 159.596C255.758 149.966 253.66 142.784 252.319 133.385L225.241 140.64C226.454 150.871 228.586 158.702 234.625 170.888C235.47 171.681 236.088 172.66 236.39 173.788C237.46 177.781 234.177 182.13 229.058 183.502C223.938 184.874 218.921 182.749 217.851 178.756C216.781 174.763 220.063 170.413 225.183 169.042C225.435 168.974 225.688 168.915 225.939 168.864C220.75 156.576 218.745 148.29 217.446 134.384L218.903 133.993L218.903 133.993L251.384 125.29L251.384 125.283L251.381 125.254Z" fill="white"/>
<path fill-rule="evenodd" clip-rule="evenodd" d="M240.721 151.124L247.741 153.005C241.301 166.532 238.354 174.586 237.309 191.937L237.286 191.931C237.424 192.774 237.393 193.633 237.167 194.476C236.097 198.469 231.079 200.594 225.96 199.222C220.84 197.851 217.557 193.502 218.627 189.508C219.697 185.515 224.715 183.39 229.834 184.762C230.184 184.855 230.524 184.963 230.856 185.083C232.156 174.714 233.93 167.445 237.469 158.634L210.391 151.379C206.326 160.845 204.257 168.693 203.393 182.265C203.729 183.375 203.774 184.532 203.472 185.66C202.402 189.653 197.384 191.778 192.265 190.407C187.145 189.035 183.863 184.686 184.933 180.693C186.003 176.699 191.02 174.574 196.14 175.946C196.392 176.014 196.64 176.089 196.883 176.17C198.533 162.934 200.94 154.756 206.768 142.063L208.226 142.453L208.226 142.453L240.706 151.156L240.721 151.124Z" fill="#EFC404"/>
<path fill-rule="evenodd" clip-rule="evenodd" d="M239.414 150.3L246.434 152.181C239.994 165.708 237.047 173.763 236.002 191.114L235.978 191.108C236.117 191.951 236.085 192.81 235.859 193.652C234.789 197.646 229.772 199.771 224.652 198.399C219.533 197.027 216.25 192.678 217.32 188.685C218.39 184.692 223.407 182.567 228.527 183.938C228.876 184.032 229.217 184.139 229.548 184.26C230.849 173.891 232.622 166.622 236.161 157.811L209.083 150.556C205.018 160.022 202.949 167.87 202.086 181.443C202.421 182.552 202.467 183.709 202.164 184.837C201.094 188.83 196.077 190.955 190.957 189.583C185.838 188.212 182.555 183.862 183.625 179.869C184.695 175.876 189.713 173.751 194.832 175.123C195.085 175.19 195.333 175.265 195.576 175.347C197.226 162.11 199.632 153.932 205.46 141.239L212.48 143.12L212.48 143.12L239.399 150.333L239.414 150.3Z" fill="black"/>
<path d="M190.724 98.9136C191.11 101.128 192.564 103.139 195.053 104.864C197.546 106.591 201.012 107.98 205.244 108.938C213.704 110.854 225.026 111.001 237.187 108.881C249.348 106.761 259.952 102.791 267.265 98.1265C270.923 95.7928 273.714 93.3126 275.476 90.8438C277.234 88.3789 277.923 85.9939 277.537 83.7796C277.151 81.5654 275.696 79.5539 273.207 77.8295C270.714 76.1023 267.248 74.7129 263.016 73.7548C254.556 71.8396 243.234 71.6926 231.073 73.8125C218.913 75.9325 208.308 79.9019 200.996 84.5667C197.337 86.9004 194.546 89.3806 192.784 91.8494C191.026 94.3143 190.338 96.6993 190.724 98.9136Z" fill="black" stroke="black" stroke-width="2"/>
<path d="M191.45 103.072C191.836 105.286 193.291 107.298 195.78 109.022C198.273 110.75 201.739 112.139 205.971 113.097C214.431 115.012 225.753 115.159 237.914 113.039C250.074 110.919 260.679 106.95 267.991 102.285C271.65 99.9514 274.441 97.4713 276.203 95.0024C277.961 92.5376 278.649 90.1525 278.263 87.9383C277.877 85.724 276.423 83.7125 273.934 81.9881C271.441 80.2609 267.975 78.8715 263.743 77.9134C255.283 75.9982 243.961 75.8512 231.8 77.9712C219.639 80.0911 209.035 84.0605 201.722 88.7253C198.064 91.059 195.273 93.5392 193.511 96.0081C191.753 98.4729 191.064 100.858 191.45 103.072Z" stroke="black" stroke-width="2"/>
<path d="M192.02 106.339C192.406 108.554 193.86 110.565 196.349 112.289C198.842 114.017 202.308 115.406 206.54 116.364C215 118.279 226.322 118.426 238.483 116.306C250.644 114.186 261.248 110.217 268.561 105.552C272.219 103.219 275.01 100.738 276.772 98.2695C278.53 95.8047 279.219 93.4196 278.833 91.2054C278.447 88.9912 276.992 86.9797 274.503 85.2553C272.01 83.528 268.544 82.1387 264.312 81.1805C255.852 79.2653 244.53 79.1184 232.369 81.2383C220.209 83.3583 209.604 87.3276 202.292 91.9925C198.633 94.3262 195.842 96.8063 194.081 99.2752C192.322 101.74 191.634 104.125 192.02 106.339Z" stroke="black" stroke-width="2"/>
<path d="M216.968 81.4297C211.932 82.158 211.378 79.7671 211.746 78.2999C213.605 77.6952 219.648 75.5191 222.6 75.0982C221.876 75.5985 220.835 76.1348 223.74 77.3494C227.372 78.8677 219.039 82.117 225.239 81.6536C231.056 81.2187 227.666 83.774 226.321 84.1021C225.244 84.3647 222.859 85.1732 221.802 85.5447C223.296 82.8521 221.458 84.108 218.528 83.4027C215.599 82.6973 223.264 80.5193 216.968 81.4297Z" fill="white" stroke="black" stroke-width="2"/>
<path d="M250.608 101.084C255.645 100.355 256.199 102.746 255.831 104.213C253.972 104.818 247.928 106.994 244.977 107.415C245.701 106.915 246.742 106.378 243.836 105.164C240.204 103.646 248.538 100.396 242.338 100.86C236.521 101.295 239.91 98.7393 241.256 98.4111C242.333 98.1486 244.717 97.34 245.775 96.9686C244.28 99.6612 246.119 98.4052 249.048 99.1106C251.977 99.816 244.313 101.994 250.608 101.084Z" fill="white" stroke="black" stroke-width="2"/>
<path d="M190.724 98.9136C191.11 101.128 192.564 103.139 195.053 104.864C197.546 106.591 201.012 107.98 205.244 108.938C213.704 110.854 225.026 111.001 237.187 108.881C249.348 106.761 259.952 102.791 267.265 98.1265C270.923 95.7928 273.714 93.3126 275.476 90.8438C277.234 88.3789 277.923 85.9939 277.537 83.7796C277.151 81.5654 275.696 79.5539 273.207 77.8295C270.714 76.1023 267.248 74.7129 263.016 73.7548C254.556 71.8396 243.234 71.6926 231.073 73.8125C218.913 75.9325 208.308 79.9019 200.996 84.5667C197.337 86.9004 194.546 89.3806 192.784 91.8494C191.026 94.3143 190.338 96.6993 190.724 98.9136Z" stroke="black" stroke-width="2"/>
<path d="M213.784 94.8934C213.938 95.7789 214.527 96.6371 215.648 97.4137C216.773 98.1931 218.37 98.8401 220.364 99.2913C224.348 100.193 229.718 100.267 235.511 99.2574C241.304 98.2475 246.332 96.3601 249.776 94.164C251.5 93.0647 252.783 91.9156 253.578 90.8013C254.371 89.6911 254.634 88.6843 254.48 87.7988C254.326 86.9134 253.737 86.0551 252.616 85.2785C251.49 84.4991 249.894 83.8521 247.899 83.401C243.916 82.4997 238.546 82.4248 232.753 83.4348C226.959 84.4447 221.932 86.3321 218.488 88.5282C216.764 89.6275 215.48 90.7766 214.685 91.8909C213.893 93.0011 213.629 94.0079 213.784 94.8934Z" fill="#8C74B7" stroke="black" stroke-width="2"/>
<path d="M148.901 101.652C148.604 103.355 147.483 104.922 145.52 106.282C143.554 107.644 140.808 108.748 137.437 109.511C130.701 111.036 121.67 111.155 111.961 109.463C102.252 107.77 93.7948 104.602 87.9717 100.888C85.0582 99.0293 82.8475 97.0615 81.4581 95.114C80.0716 93.1706 79.5468 91.316 79.8437 89.6132C80.1405 87.9103 81.2619 86.3427 83.2242 84.983C85.1906 83.6206 87.9368 82.5169 91.3073 81.7539C98.0438 80.2288 107.074 80.1095 116.783 81.8021C126.492 83.4946 134.95 86.6626 140.773 90.3771C143.686 92.2356 145.897 94.2034 147.286 96.1509C148.673 98.0943 149.198 99.9489 148.901 101.652Z" fill="black" stroke="black" stroke-width="2"/>
<path d="M148.321 104.979C148.024 106.682 146.902 108.249 144.94 109.609C142.974 110.971 140.228 112.075 136.857 112.838C130.121 114.363 121.09 114.482 111.381 112.79C101.672 111.097 93.2148 107.929 87.3917 104.215C84.4781 102.356 82.2674 100.388 80.878 98.4409C79.4915 96.4975 78.9667 94.6429 79.2636 92.9401C79.5604 91.2372 80.6818 89.6696 82.6441 88.3099C84.6105 86.9475 87.3567 85.8438 90.7273 85.0808C97.4637 83.5557 106.494 83.4364 116.203 85.129C125.912 86.8215 134.37 89.9895 140.193 93.704C143.106 95.5625 145.317 97.5303 146.706 99.4778C148.093 101.421 148.618 103.276 148.321 104.979Z" stroke="black" stroke-width="2"/>
<path d="M147.865 107.593C147.568 109.296 146.447 110.863 144.484 112.223C142.518 113.585 139.772 114.689 136.401 115.452C129.665 116.977 120.635 117.096 110.925 115.404C101.216 113.711 92.759 110.543 86.9359 106.829C84.0224 104.97 81.8117 103.002 80.4223 101.055C79.0358 99.1116 78.511 97.257 78.8078 95.5541C79.1047 93.8513 80.2261 92.2836 82.1884 90.924C84.1548 89.5616 86.901 88.4579 90.2715 87.6948C97.008 86.1698 106.038 86.0505 115.747 87.743C125.457 89.4356 133.914 92.6035 139.737 96.3181C142.65 98.1766 144.861 100.144 146.251 102.092C147.637 104.035 148.162 105.89 147.865 107.593Z" stroke="black" stroke-width="2"/>
<path d="M128.103 87.699C132.132 88.2816 132.575 86.3689 132.281 85.1951C130.794 84.7114 125.959 82.9705 123.598 82.6338C124.177 83.034 125.01 83.4631 122.685 84.4347C119.78 85.6493 126.446 88.2488 121.486 87.8781C116.832 87.5302 119.544 89.5744 120.621 89.837C121.482 90.047 123.39 90.6939 124.236 90.991C123.04 88.8369 124.511 89.8417 126.855 89.2774C129.198 88.7131 123.066 86.9706 128.103 87.699Z" fill="white" stroke="black" stroke-width="2"/>
<path d="M101.191 103.422C97.1615 102.84 96.7183 104.752 97.0125 105.926C98.4997 106.41 103.335 108.151 105.696 108.487C105.117 108.087 104.284 107.658 106.608 106.686C109.514 105.472 102.847 102.872 107.807 103.243C112.461 103.591 109.749 101.547 108.672 101.284C107.811 101.074 105.903 100.427 105.057 100.13C106.253 102.284 104.782 101.279 102.439 101.844C100.095 102.408 106.227 104.151 101.191 103.422Z" fill="white" stroke="black" stroke-width="2"/>
<path d="M148.901 101.652C148.604 103.355 147.483 104.922 145.52 106.282C143.554 107.644 140.808 108.748 137.437 109.511C130.701 111.036 121.67 111.155 111.961 109.463C102.252 107.77 93.7948 104.602 87.9717 100.888C85.0582 99.0293 82.8475 97.0615 81.4581 95.114C80.0716 93.1706 79.5468 91.316 79.8437 89.6132C80.1405 87.9103 81.2619 86.3427 83.2242 84.983C85.1906 83.6206 87.9368 82.5169 91.3073 81.7539C98.0438 80.2288 107.074 80.1095 116.783 81.8021C126.492 83.4946 134.95 86.6626 140.773 90.3771C143.686 92.2356 145.897 94.2034 147.286 96.1509C148.673 98.0943 149.198 99.9489 148.901 101.652Z" stroke="black" stroke-width="2"/>
<path d="M130.454 98.4357C130.342 99.0755 129.914 99.7205 129.045 100.322C128.173 100.926 126.922 101.436 125.342 101.793C122.187 102.507 117.918 102.569 113.303 101.764C108.688 100.96 104.692 99.4574 101.964 97.7179C100.598 96.8468 99.5937 95.9439 98.9772 95.0802C98.3636 94.2205 98.1786 93.4685 98.2902 92.8287C98.4017 92.1888 98.8303 91.5438 99.6986 90.9425C100.571 90.3383 101.822 89.8285 103.402 89.471C106.557 88.7571 110.826 88.6955 115.441 89.5C120.056 90.3046 124.052 91.8069 126.78 93.5465C128.146 94.4175 129.15 95.3204 129.767 96.1842C130.38 97.0439 130.565 97.7959 130.454 98.4357Z" fill="#8C74B7" stroke="black" stroke-width="2"/>
<path d="M190.669 342.829C191.132 344.556 190.761 346.512 189.517 348.634C188.27 350.76 186.182 352.981 183.367 355.153C177.739 359.494 169.362 363.515 159.57 366.139C149.777 368.763 140.512 369.468 133.468 368.523C129.943 368.05 127.025 367.17 124.882 365.952C122.743 364.737 121.444 363.229 120.982 361.502C120.519 359.775 120.89 357.82 122.134 355.698C123.382 353.572 125.469 351.351 128.285 349.179C133.912 344.838 142.289 340.817 152.081 338.193C161.874 335.569 171.139 334.863 178.183 335.808C181.708 336.282 184.626 337.161 186.769 338.379C188.908 339.594 190.207 341.103 190.669 342.829Z" fill="#D8C1F7" stroke="black" stroke-width="2"/>
<path d="M190.063 319.782C190.526 321.509 190.155 323.464 188.91 325.586C187.663 327.712 185.576 329.933 182.76 332.105C177.132 336.446 168.756 340.468 158.963 343.091C149.17 345.715 139.906 346.421 132.861 345.476C129.337 345.003 126.419 344.123 124.276 342.905C122.137 341.69 120.838 340.181 120.375 338.455C119.913 336.728 120.283 334.772 121.528 332.651C122.775 330.524 124.862 328.304 127.678 326.132C133.306 321.79 141.682 317.769 151.475 315.145C161.268 312.521 170.532 311.816 177.577 312.761C181.101 313.234 184.019 314.114 186.163 315.332C188.301 316.547 189.6 318.055 190.063 319.782Z" fill="black" stroke="black" stroke-width="2"/>
<path d="M190.932 331.384C191.395 333.111 191.024 335.066 189.779 337.188C188.532 339.314 186.445 341.535 183.629 343.707C178.001 348.048 169.625 352.07 159.832 354.694C150.039 357.317 140.775 358.023 133.73 357.078C130.206 356.605 127.288 355.725 125.145 354.507C123.006 353.292 121.707 351.783 121.244 350.057C120.782 348.33 121.152 346.375 122.397 344.253C123.644 342.126 125.731 339.906 128.547 337.734C134.175 333.392 142.551 329.371 152.344 326.747C162.137 324.123 171.401 323.418 178.446 324.363C181.971 324.836 184.888 325.716 187.032 326.934C189.171 328.149 190.469 329.657 190.932 331.384Z" stroke="black" stroke-width="2"/>
<path d="M164.595 315.775C168.606 314.574 168.191 312.598 167.409 311.631C165.812 311.823 160.548 312.292 158.2 312.999C158.913 313.122 159.876 313.162 158.128 315.074C155.943 317.465 163.287 317.005 158.5 318.805C154.008 320.495 157.422 321.229 158.54 321.007C159.435 320.831 161.494 320.608 162.412 320.519C160.364 319.027 162.172 319.328 164.114 317.787C166.055 316.247 159.581 317.275 164.595 315.775Z" fill="white" stroke="black" stroke-width="2"/>
<path d="M146.294 342.091C142.283 343.291 142.697 345.267 143.48 346.235C145.077 346.043 150.341 345.574 152.689 344.866C151.976 344.743 151.013 344.704 152.761 342.791C154.946 340.4 147.601 340.861 152.389 339.06C156.881 337.37 153.466 336.637 152.348 336.858C151.454 337.035 149.394 337.257 148.476 337.346C150.524 338.838 148.717 338.537 146.775 340.078C144.833 341.619 151.308 340.59 146.294 342.091Z" fill="white" stroke="black" stroke-width="2"/>
<path d="M190.063 319.782C190.526 321.509 190.155 323.464 188.91 325.586C187.663 327.712 185.576 329.933 182.76 332.105C177.132 336.446 168.756 340.468 158.963 343.091C149.17 345.715 139.906 346.421 132.861 345.476C129.337 345.003 126.419 344.123 124.276 342.905C122.137 341.69 120.838 340.181 120.375 338.455C119.913 336.728 120.283 334.772 121.528 332.651C122.775 330.524 124.862 328.304 127.678 326.132C133.306 321.79 141.682 317.769 151.475 315.145C161.268 312.521 170.532 311.816 177.577 312.761C181.101 313.234 184.019 314.114 186.163 315.332C188.301 316.547 189.6 318.055 190.063 319.782Z" stroke="black" stroke-width="2"/>
<path d="M171.462 324.766C171.638 325.421 171.514 326.216 170.962 327.157C170.407 328.102 169.458 329.122 168.137 330.14C165.499 332.175 161.54 334.081 156.883 335.329C152.227 336.577 147.845 336.905 144.543 336.462C142.89 336.241 141.558 335.832 140.605 335.291C139.656 334.752 139.151 334.125 138.976 333.471C138.8 332.816 138.924 332.021 139.476 331.08C140.031 330.134 140.98 329.115 142.301 328.096C144.94 326.062 148.898 324.155 153.555 322.908C158.211 321.66 162.593 321.331 165.895 321.774C167.549 321.996 168.88 322.404 169.834 322.946C170.782 323.484 171.287 324.111 171.462 324.766Z" fill="#D8C1F7" stroke="black" stroke-width="2"/>
<path fill-rule="evenodd" clip-rule="evenodd" d="M58.3873 233.267L62.5217 226.106C75.4924 237.167 83.477 242.778 102.239 249.036L102.225 249.06C103.193 249.156 104.127 249.444 104.987 249.941C109.061 252.292 109.919 258.433 106.903 263.656C103.888 268.878 98.1413 271.205 94.0677 268.853C89.994 266.502 89.136 260.361 92.1513 255.138C92.357 254.782 92.5755 254.439 92.8052 254.111C81.7923 249.628 74.3255 245.538 65.6842 239.054L49.7358 266.677C58.9421 273.933 66.9586 278.518 81.6216 283.464C82.9401 283.422 84.2243 283.713 85.3751 284.377C89.4488 286.729 90.3067 292.869 87.2914 298.092C84.2761 303.315 78.5294 305.642 74.4557 303.29C70.382 300.938 69.524 294.798 72.5393 289.575C72.6881 289.317 72.8435 289.067 73.005 288.823C58.943 283.112 50.6637 278.059 38.4295 267.915L42.564 260.754L42.564 260.754L58.4189 233.293L58.403 233.28L58.3873 233.267Z" fill="white"/>
<path fill-rule="evenodd" clip-rule="evenodd" d="M70.6251 262.657L77.7862 258.523C83.4882 274.588 87.5976 283.439 100.717 298.24L100.693 298.253C101.483 298.821 102.148 299.537 102.645 300.397C104.997 304.471 102.67 310.217 97.4469 313.233C92.2242 316.248 86.0838 315.39 83.7319 311.316C81.3799 307.243 83.7071 301.496 88.9298 298.481C89.2861 298.275 89.6467 298.087 90.01 297.917C82.7138 288.529 78.2924 281.253 74.0508 271.317L46.4272 287.265C50.7723 298.152 55.4221 306.131 65.6474 317.746C66.8106 318.369 67.7776 319.263 68.4421 320.414C70.794 324.487 68.4668 330.234 63.2442 333.25C58.0215 336.265 51.8811 335.407 49.5291 331.333C47.1772 327.26 49.5044 321.513 54.727 318.497C54.9846 318.349 55.2444 318.209 55.5059 318.08C46.1835 306.103 41.54 297.587 36.0167 282.685L37.5039 281.826L37.5037 281.826L70.6393 262.695L70.632 262.676L70.6251 262.657Z" fill="#EFC404"/>
<path fill-rule="evenodd" clip-rule="evenodd" d="M68.9104 263.047L76.0715 258.912C81.7735 274.977 85.8829 283.829 99.0022 298.629L98.9786 298.643C99.7684 299.21 100.434 299.927 100.93 300.787C103.282 304.86 100.955 310.607 95.7322 313.622C90.5095 316.638 84.3691 315.78 82.0172 311.706C79.6652 307.632 81.9924 301.886 87.2151 298.87C87.5714 298.665 87.932 298.477 88.2953 298.307C80.9992 288.918 76.5778 281.643 72.3361 271.707L44.7126 287.655C49.0576 298.542 53.7075 306.521 63.9328 318.136C65.096 318.758 66.0629 319.652 66.7274 320.803C69.0793 324.877 66.7521 330.624 61.5295 333.639C56.3068 336.654 50.1664 335.797 47.8144 331.723C45.4625 327.649 47.7897 321.902 53.0123 318.887C53.2699 318.738 53.5297 318.599 53.7912 318.469C44.4688 306.492 39.8253 297.976 34.3019 283.075L35.7894 282.216L41.463 278.94L68.9246 263.085L68.9174 263.066L68.9104 263.047Z" fill="black"/>
<path d="M351.088 192.988C350.536 195.051 350.984 197.371 352.446 199.863C353.91 202.36 356.354 204.958 359.639 207.491C366.205 212.556 375.967 217.241 387.372 220.296C398.776 223.352 409.573 224.176 417.791 223.073C421.903 222.521 425.318 221.494 427.835 220.064C430.347 218.636 431.895 216.851 432.448 214.789C433.001 212.726 432.553 210.406 431.091 207.914C429.626 205.417 427.182 202.82 423.897 200.286C417.331 195.221 407.569 190.537 396.165 187.481C384.76 184.425 373.964 183.601 365.745 184.704C361.633 185.256 358.218 186.283 355.701 187.713C353.189 189.141 351.641 190.926 351.088 192.988Z" fill="#D8C1F7" stroke="black" stroke-width="2"/>
<path d="M365.019 173.944C364.467 176.007 364.915 178.326 366.377 180.819C367.841 183.315 370.285 185.913 373.57 188.447C380.136 193.511 389.898 198.196 401.303 201.252C412.707 204.308 423.504 205.132 431.722 204.029C435.834 203.477 439.249 202.449 441.766 201.019C444.278 199.592 445.826 197.807 446.379 195.744C446.932 193.681 446.483 191.362 445.021 188.869C443.557 186.373 441.113 183.775 437.828 181.241C431.262 176.177 421.5 171.492 410.095 168.436C398.691 165.381 387.895 164.556 379.676 165.66C375.564 166.211 372.149 167.239 369.632 168.669C367.12 170.096 365.572 171.881 365.019 173.944Z" fill="black" stroke="black" stroke-width="2"/>
<path d="M359.553 184.524C359 186.587 359.448 188.907 360.91 191.399C362.374 193.896 364.819 196.493 368.103 199.027C374.669 204.092 384.432 208.776 395.836 211.832C407.24 214.888 418.037 215.712 426.256 214.609C430.367 214.057 433.783 213.029 436.299 211.6C438.812 210.172 440.359 208.387 440.912 206.324C441.465 204.262 441.017 201.942 439.555 199.45C438.09 196.953 435.646 194.355 432.361 191.822C425.795 186.757 416.033 182.072 404.629 179.017C393.224 175.961 382.428 175.137 374.209 176.24C370.098 176.792 366.682 177.819 364.165 179.249C361.653 180.677 360.105 182.461 359.553 184.524Z" stroke="black" stroke-width="2"/>
<path d="M394.795 169.326C390.131 167.93 390.613 165.632 391.523 164.506C393.38 164.73 399.502 165.275 402.232 166.098C401.403 166.241 400.283 166.287 402.316 168.511C404.857 171.292 396.316 170.756 401.884 172.851C407.108 174.816 403.137 175.669 401.836 175.411C400.796 175.206 398.401 174.947 397.333 174.844C399.715 173.109 397.613 173.458 395.355 171.667C393.097 169.875 400.626 171.071 394.795 169.326Z" fill="white" stroke="black" stroke-width="2"/>
<path d="M416.079 199.931C420.743 201.326 420.261 203.625 419.351 204.75C417.494 204.526 411.373 203.981 408.642 203.158C409.471 203.015 410.591 202.969 408.558 200.745C406.017 197.965 414.558 198.5 408.991 196.406C403.767 194.441 407.738 193.588 409.038 193.845C410.078 194.051 412.473 194.309 413.541 194.413C411.159 196.148 413.261 195.798 415.519 197.59C417.778 199.382 410.248 198.186 416.079 199.931Z" fill="white" stroke="black" stroke-width="2"/>
<path d="M365.019 173.944C364.467 176.007 364.915 178.326 366.377 180.819C367.841 183.315 370.285 185.913 373.57 188.447C380.136 193.511 389.898 198.196 401.303 201.252C412.707 204.308 423.504 205.132 431.722 204.029C435.834 203.477 439.249 202.449 441.766 201.019C444.278 199.592 445.826 197.807 446.379 195.744C446.932 193.681 446.483 191.362 445.021 188.869C443.557 186.373 441.113 183.775 437.828 181.241C431.262 176.177 421.5 171.492 410.095 168.436C398.691 165.381 387.895 164.556 379.676 165.66C375.564 166.211 372.149 167.239 369.632 168.669C367.12 170.096 365.572 171.881 365.019 173.944Z" stroke="black" stroke-width="2"/>
<path d="M386.651 179.74C386.432 180.557 386.593 181.527 387.25 182.646C387.909 183.769 389.03 184.969 390.576 186.162C393.666 188.544 398.291 190.769 403.721 192.224C409.152 193.68 414.27 194.065 418.137 193.547C420.072 193.287 421.643 192.808 422.776 192.165C423.904 191.524 424.528 190.764 424.747 189.948C424.966 189.132 424.805 188.162 424.148 187.043C423.489 185.92 422.368 184.719 420.822 183.526C417.732 181.144 413.107 178.919 407.677 177.464C402.246 176.009 397.128 175.623 393.261 176.142C391.326 176.401 389.755 176.881 388.622 177.524C387.494 178.165 386.87 178.924 386.651 179.74Z" fill="#D8C1F7" stroke="black" stroke-width="2"/>
<path fill-rule="evenodd" clip-rule="evenodd" d="M390.121 85.3514L394.555 84.1633C395.304 93.5975 396.236 98.9347 401.145 108.757L401.13 108.761C401.472 109.178 401.726 109.658 401.868 110.191C402.544 112.713 400.471 115.46 397.237 116.327C394.003 117.193 390.833 115.851 390.157 113.329C389.481 110.806 391.555 108.059 394.789 107.192C395.01 107.133 395.23 107.084 395.449 107.045C392.886 100.962 391.56 96.4255 390.713 90.4878L373.609 95.071C374.374 101.533 375.721 106.48 379.536 114.178C380.07 114.679 380.46 115.298 380.651 116.01C381.327 118.533 379.253 121.28 376.019 122.147C372.785 123.013 369.616 121.671 368.94 119.148C368.264 116.626 370.338 113.878 373.572 113.012C373.731 112.969 373.891 112.932 374.05 112.9C370.771 105.137 369.505 99.9035 368.684 91.1188L369.605 90.8721L369.605 90.872L390.123 85.3742L390.121 85.3514Z" fill="white"/>
<path fill-rule="evenodd" clip-rule="evenodd" d="M383.387 101.693L387.821 102.881C383.753 111.426 381.892 116.515 381.232 127.475L381.217 127.471C381.304 128.004 381.284 128.546 381.142 129.079C380.466 131.601 377.296 132.944 374.062 132.077C370.828 131.211 368.755 128.463 369.43 125.941C370.106 123.418 373.276 122.076 376.51 122.942C376.73 123.002 376.946 123.069 377.155 123.145C377.976 116.595 379.097 112.004 381.332 106.438L364.228 101.855C361.66 107.834 360.353 112.792 359.807 121.365C360.02 122.066 360.048 122.797 359.857 123.51C359.181 126.032 356.012 127.375 352.778 126.508C349.544 125.642 347.47 122.894 348.146 120.372C348.822 117.849 351.991 116.507 355.225 117.374C355.385 117.416 355.541 117.464 355.695 117.515C356.737 109.154 358.257 103.988 361.939 95.9697L362.86 96.2165L362.86 96.2165L383.378 101.714L383.382 101.705L383.387 101.693Z" fill="#EFC404"/>
<path fill-rule="evenodd" clip-rule="evenodd" d="M382.561 101.173L386.995 102.361C382.927 110.906 381.066 115.995 380.406 126.955L380.391 126.951C380.478 127.484 380.458 128.026 380.315 128.559C379.639 131.081 376.47 132.424 373.236 131.557C370.002 130.69 367.928 127.943 368.604 125.421C369.28 122.898 372.45 121.556 375.684 122.422C375.904 122.481 376.12 122.549 376.329 122.625C377.15 116.075 378.271 111.484 380.506 105.918L363.401 101.335C360.833 107.314 359.526 112.272 358.981 120.846C359.193 121.547 359.222 122.277 359.031 122.99C358.355 125.512 355.185 126.855 351.951 125.988C348.717 125.121 346.644 122.374 347.32 119.852C347.995 117.329 351.165 115.987 354.399 116.853C354.558 116.896 354.715 116.943 354.869 116.995C355.911 108.634 357.431 103.468 361.113 95.4496L365.547 96.6378L365.547 96.6379L382.551 101.194L382.555 101.187L382.561 101.173Z" fill="black"/>
<path d="M313.793 81.7594C313.793 81.7594 337.468 79.8996 345.071 109.378C347.638 96.0073 335.068 65.8177 313.793 81.7594Z" fill="#FD8BA4" stroke="black" stroke-width="3" stroke-miterlimit="10"/>
<path d="M257.443 324.218C257.443 324.218 247.502 334.79 246.711 352.972C246.711 352.972 217.859 348.277 221.016 365.541C224.311 383.584 253.232 376.098 256.234 369.539C259.236 362.98 251.471 346.873 262.784 331.058C274.098 315.243 257.443 324.218 257.443 324.218Z" fill="black" stroke="black" stroke-width="3" stroke-miterlimit="10"/>
<path d="M396.823 43.7457C396.823 43.7457 385.226 55.1997 346.821 20.8037C303.606 -17.9198 291.006 67.7955 291.006 67.7955L273.206 245.255C273.206 245.255 269.663 240.714 271.365 219.057C273.067 197.4 230.627 187.369 208.268 235.539C193.203 268.015 203.097 288.333 225.91 286.788C225.91 286.788 247.75 357.335 279.897 346.214C312.044 335.092 316.893 330.535 322.254 288.674C327.615 246.812 338.533 79.5969 338.533 79.5969C338.533 79.5969 340.24 34.4406 354.675 45.5072C369.11 56.5739 391.161 62.9276 402.078 56.4428C410.276 51.5696 412.857 38.6041 396.823 43.7457Z" fill="#FD8BA4" stroke="black" stroke-width="3" stroke-miterlimit="10"/>
<path d="M352.768 43.6287C352.768 43.6287 331.25 27.6705 325.696 80.2172C323.187 103.937 317.382 174.659 315.774 202.839C309.913 305.51 298.262 338.782 298.262 338.782C298.262 338.782 322.202 338.609 326.206 248.641C327.859 211.282 332.405 155.315 336.034 111.655C339.126 74.4946 337.104 45.0315 352.768 43.6287Z" fill="black" stroke="black" stroke-width="3" stroke-miterlimit="10"/>
<path d="M228.241 221.553C218.537 231.508 201.857 264.707 217.187 273.134C232.517 281.561 268.234 236.166 261.058 217.372C259.619 213.604 249.787 228.788 239.784 228.6C229.781 228.412 237.942 211.597 228.241 221.553Z" fill="black" stroke="black" stroke-width="3" stroke-miterlimit="10"/>
<path d="M226.003 285.959C226.003 285.959 242.27 282.726 249.431 269.576C249.431 269.576 259.602 350.294 287.399 342.743C287.399 342.743 271.282 352.415 257.032 340.684C242.782 328.953 227.37 293.437 226.003 285.959Z" fill="#8C74B7"/>
<path d="M282.542 328.824C282.424 336.417 280.978 343.064 291.44 357.965C291.44 357.965 265.692 371.807 278.706 383.581C292.304 395.887 310.688 372.34 309.071 365.298C307.453 358.257 291.493 350.217 290.833 330.763C290.172 311.308 282.66 321.232 282.542 328.824Z" fill="black" stroke="black" stroke-width="3" stroke-miterlimit="10"/>
<path d="M396.823 43.7455C396.823 43.7455 383.209 54.164 346.821 20.8036C304.05 -18.4081 291.006 67.7954 291.006 67.7954L273.207 245.255C273.207 245.255 269.663 240.714 271.365 219.057C273.067 197.4 230.627 187.369 208.268 235.539C193.204 268.015 203.097 288.332 225.91 286.788C225.91 286.788 247.75 357.335 279.897 346.214C312.044 335.092 316.893 330.535 322.254 288.674C327.615 246.812 338.533 79.5967 338.533 79.5967C338.533 79.5967 340.273 36.1198 354.716 47.1872C369.159 58.2545 394.024 61.5123 402.074 56.4423C410.125 51.3723 412.857 38.6039 396.823 43.7455Z" stroke="black" stroke-width="3" stroke-miterlimit="10"/>
<path d="M298.766 124.793L298.34 124.751C296.907 124.611 295.632 125.658 295.491 127.091L282.279 261.992C282.139 263.425 283.187 264.7 284.619 264.84L285.046 264.882C286.478 265.022 287.754 263.975 287.894 262.542L301.106 127.641C301.246 126.208 300.199 124.933 298.766 124.793Z" fill="#8C74B7" stroke="black" stroke-width="3" stroke-linecap="round" stroke-linejoin="round"/>
<path d="M297.936 124.711L297.509 124.67C296.077 124.529 294.802 125.577 294.661 127.009L281.449 261.911C281.309 263.343 282.356 264.618 283.789 264.759L284.216 264.801C285.648 264.941 286.923 263.893 287.064 262.461L300.276 127.559C300.416 126.127 299.368 124.852 297.936 124.711Z" fill="#8C74B7" stroke="black" stroke-width="3" stroke-linecap="round" stroke-linejoin="round"/>
<path d="M286.955 121.118L286.528 121.076C285.096 120.936 283.821 121.983 283.68 123.416L270.468 258.317C270.328 259.75 271.376 261.025 272.808 261.165L273.235 261.207C274.667 261.348 275.942 260.3 276.083 258.867L289.295 123.966C289.435 122.533 288.388 121.258 286.955 121.118Z" fill="#8C74B7" stroke="black" stroke-width="3" stroke-linecap="round" stroke-linejoin="round"/>
<path d="M328.803 127.746L328.376 127.716C326.94 127.616 325.695 128.7 325.595 130.136L316.202 265.357C316.102 266.793 317.185 268.038 318.621 268.137L319.049 268.167C320.485 268.267 321.73 267.183 321.83 265.747L331.223 130.527C331.323 129.091 330.239 127.846 328.803 127.746Z" fill="#8C74B7" stroke="black" stroke-width="3" stroke-linecap="round" stroke-linejoin="round"/>
<path d="M271.376 219.058C271.376 219.058 270.337 238.262 261.52 255.443L270.705 277.328C278.953 265.965 276.137 262.706 273.218 245.256C273.218 245.256 270.285 234.478 271.376 219.058Z" fill="black" stroke="black" stroke-width="3" stroke-miterlimit="10"/>
<path d="M286.99 76.7873C286.99 76.7873 287.121 45.5797 302.627 32.844C317.23 20.8425 322.7 12.1327 329.099 11.095C332.297 10.5663 339.76 9.19825 345.857 15.6733C346.254 16.1001 350.508 22.3364 348.945 22.6915C346.769 23.2001 339.924 15.7595 336.035 14.6686C329.351 12.7958 321.126 23.2958 321.119 32.5561C321.114 49.7624 328.075 68.489 331.551 78.6724C331.551 78.6724 321.823 77.9292 321.748 77.7123C315.808 60.9946 317.707 40.5751 311.862 37.1045C305.915 33.5773 292.461 66.4443 294.266 75.0673C294.255 75.0662 289.259 75.0579 286.99 76.7873Z" fill="#8C74B7" stroke="black" stroke-width="3" stroke-miterlimit="10"/>
<path d="M289.283 134.778C301.222 135.947 312.185 123.774 313.77 107.589C315.355 91.4036 306.962 77.335 295.024 76.1658C283.085 74.9965 272.122 87.1694 270.537 103.355C268.952 119.54 277.345 133.609 289.283 134.778Z" fill="#FCFCFC" stroke="black" stroke-width="3" stroke-miterlimit="10"/>
<path d="M285.575 104.273L297.281 101.058C296.712 93.0023 292.747 86.7051 287.347 86.1763C280.887 85.5436 274.834 93.3932 273.824 103.708C272.814 114.022 277.232 122.909 283.688 123.541C289.022 124.063 294.077 118.797 296.247 111.134L285.575 104.273Z" fill="black"/>
<path d="M282.866 80.4299C282.866 80.4299 306.078 77.7449 313.681 107.235C316.241 93.848 304.129 64.4869 282.866 80.4299Z" fill="black" stroke="black" stroke-width="3" stroke-miterlimit="10"/>
<path d="M320.583 136.582C332.521 137.751 343.484 125.579 345.07 109.393C346.655 93.208 338.262 79.1394 326.324 77.9702C314.385 76.801 303.422 88.9739 301.837 105.159C300.252 121.344 308.645 135.413 320.583 136.582Z" fill="#FCFCFC" stroke="black" stroke-width="3" stroke-miterlimit="10"/>
<path d="M319.745 107.494L331.96 104.183C331.357 95.844 327.204 89.3616 321.575 88.8102C314.838 88.1504 308.527 96.2541 307.483 106.914C306.439 117.574 311.058 126.749 317.794 127.408C323.363 127.954 328.636 122.515 330.89 114.596L319.745 107.494Z" fill="black"/>
<path d="M313.793 81.7594C313.793 81.7594 337.468 79.8996 345.071 109.378C347.638 96.0073 335.068 65.8177 313.793 81.7594Z" fill="black" stroke="black" stroke-width="3" stroke-miterlimit="10"/>
<path d="M234.937 223.974C234.937 223.974 241.107 266.666 247.744 256.821C254.38 246.976 265.292 234.156 262.381 218.805C259.469 203.455 243.676 238.378 234.937 223.974Z" fill="#8C74B7"/>
<path d="M315.978 169.707C319.938 170.095 323.586 165.943 324.125 160.433C324.665 154.923 321.892 150.142 317.932 149.754C313.971 149.366 310.323 153.518 309.784 159.028C309.244 164.538 312.017 169.319 315.978 169.707Z" fill="#FD8BA4" stroke="black" stroke-width="3" stroke-miterlimit="10"/>
<path d="M313.331 196.726C317.292 197.114 320.94 192.962 321.479 187.452C322.019 181.942 319.246 177.162 315.285 176.774C311.325 176.386 307.677 180.538 307.138 186.048C306.598 191.557 309.371 196.338 313.331 196.726Z" fill="#FD8BA4" stroke="black" stroke-width="3" stroke-miterlimit="10"/>
<path d="M308.441 227.716C313.225 228.185 317.632 223.169 318.283 216.513C318.935 209.857 315.586 204.082 310.802 203.613C306.018 203.145 301.611 208.161 300.96 214.816C300.308 221.472 303.657 227.248 308.441 227.716Z" fill="black" stroke="black" stroke-width="3" stroke-miterlimit="10"/>
<path d="M317.638 169.869C321.598 170.257 325.246 166.105 325.786 160.595C326.325 155.086 323.552 150.305 319.592 149.917C315.631 149.529 311.984 153.681 311.444 159.191C310.904 164.7 313.677 169.481 317.638 169.869Z" fill="#FD8BA4" stroke="black" stroke-width="3" stroke-miterlimit="10"/>
<path d="M324.273 183.528C326.582 183.754 328.709 181.333 329.024 178.119C329.338 174.906 327.721 172.118 325.412 171.892C323.103 171.666 320.976 174.087 320.661 177.3C320.347 180.514 321.964 183.302 324.273 183.528Z" fill="#FCFCFC" stroke="black" stroke-width="3" stroke-miterlimit="10"/>
<path d="M315.938 242.526C320.106 242.934 323.946 238.563 324.514 232.763C325.082 226.962 322.163 221.929 317.995 221.521C313.827 221.112 309.987 225.484 309.419 231.284C308.851 237.085 311.769 242.118 315.938 242.526Z" fill="#FCFCFC" stroke="black" stroke-width="3" stroke-miterlimit="10"/>
<path d="M314.278 242.363C318.446 242.772 322.286 238.4 322.854 232.6C323.422 226.799 320.503 221.766 316.335 221.358C312.166 220.95 308.327 225.321 307.759 231.122C307.191 236.922 310.109 241.955 314.278 242.363Z" fill="#FCFCFC" stroke="black" stroke-width="3" stroke-miterlimit="10"/>
<path d="M315.523 242.485C319.691 242.894 323.531 238.522 324.099 232.722C324.667 226.921 321.748 221.888 317.58 221.48C313.412 221.072 309.572 225.443 309.004 231.244C308.436 237.044 311.355 242.077 315.523 242.485Z" fill="#FCFCFC" stroke="black" stroke-width="3" stroke-miterlimit="10"/>
<path d="M308.572 178.211C311.191 178.468 313.569 176.071 313.884 172.858C314.199 169.644 312.331 166.832 309.712 166.575C307.093 166.319 304.714 168.715 304.4 171.929C304.085 175.142 305.953 177.955 308.572 178.211Z" fill="#FCFCFC" stroke="black" stroke-width="3" stroke-miterlimit="10"/>
<path d="M308.987 178.252C311.606 178.508 313.984 176.112 314.299 172.898C314.613 169.685 312.745 166.872 310.126 166.616C307.507 166.359 305.129 168.756 304.814 171.969C304.5 175.183 306.368 177.995 308.987 178.252Z" fill="#FCFCFC" stroke="black" stroke-width="3" stroke-miterlimit="10"/>
<path d="M314.991 196.889C318.952 197.277 322.6 193.124 323.139 187.615C323.679 182.105 320.906 177.324 316.946 176.936C312.985 176.548 309.337 180.7 308.798 186.21C308.258 191.72 311.031 196.501 314.991 196.889Z" fill="#FD8BA4" stroke="black" stroke-width="3" stroke-miterlimit="10"/>
<path d="M310.448 227.913C315.231 228.381 319.638 223.365 320.29 216.71C320.942 210.054 317.592 204.278 312.808 203.81C308.024 203.341 303.618 208.357 302.966 215.013C302.314 221.669 305.664 227.444 310.448 227.913Z" fill="#FD8BA4" stroke="black" stroke-width="3" stroke-miterlimit="10"/>
<path d="M302.253 262.975C308.064 263.544 313.417 257.45 314.209 249.364C315.001 241.277 310.932 234.261 305.121 233.692C299.31 233.122 293.957 239.216 293.165 247.303C292.373 255.389 296.442 262.405 302.253 262.975Z" fill="black" stroke="black" stroke-width="3" stroke-miterlimit="10"/>
<path d="M304.693 263.213C310.504 263.783 315.857 257.689 316.649 249.603C317.441 241.516 313.372 234.5 307.561 233.931C301.75 233.361 296.397 239.455 295.605 247.541C294.813 255.628 298.882 262.644 304.693 263.213Z" fill="#FD8BA4" stroke="black" stroke-width="3" stroke-miterlimit="10"/>
<path d="M295.512 307.246C302.857 307.965 309.623 300.264 310.624 290.045C311.625 279.826 306.482 270.958 299.136 270.239C291.79 269.519 285.024 277.22 284.023 287.44C283.023 297.659 288.166 306.526 295.512 307.246Z" fill="black" stroke="black" stroke-width="3" stroke-miterlimit="10"/>
<path d="M298.593 307.548C305.939 308.267 312.705 300.566 313.706 290.347C314.707 280.127 309.563 271.26 302.218 270.541C294.872 269.821 288.106 277.522 287.105 287.741C286.105 297.961 291.248 306.828 298.593 307.548Z" fill="#FD8BA4" stroke="black" stroke-width="3" stroke-miterlimit="10"/>
<path d="M326.127 157.106C326.127 157.106 333.675 157.17 334.834 153.928C334.834 153.928 336.921 158.326 333.805 160.12C330.688 161.914 321.449 161.847 320.22 161.726C318.99 161.606 316.566 159.693 316.566 159.693C316.566 159.693 319.695 157.062 321.428 157.232C322.995 157.307 324.566 157.265 326.127 157.106Z" fill="#FD8BA4" stroke="black" stroke-width="3" stroke-linecap="round" stroke-linejoin="round"/>
<path d="M323.855 184.585C323.855 184.585 331.403 184.645 332.562 181.403C332.562 181.403 334.649 185.805 331.536 187.599C328.424 189.393 319.196 189.328 317.947 189.205C316.698 189.083 314.294 187.168 314.294 187.168C314.294 187.168 317.423 184.537 319.156 184.707C320.723 184.782 322.294 184.742 323.855 184.585Z" fill="#FD8BA4" stroke="black" stroke-width="3" stroke-linecap="round" stroke-linejoin="round"/>
<path d="M284.123 201.256C284.123 201.256 276.706 199.855 276.198 196.445C276.198 196.445 273.297 200.359 276.002 202.723C278.708 205.087 287.773 206.813 289.021 206.935C290.27 207.057 293 205.645 293 205.645C293 205.645 290.442 202.457 288.708 202.287C287.157 202.057 285.624 201.713 284.123 201.256Z" fill="#FD8BA4" stroke="black" stroke-width="3" stroke-linecap="round" stroke-linejoin="round"/>
<path d="M288.072 160.933C288.072 160.933 280.655 159.531 280.147 156.126C280.147 156.126 277.246 160.039 279.952 162.399C282.657 164.759 291.721 166.493 292.97 166.615C294.219 166.738 296.949 165.325 296.949 165.325C296.949 165.325 294.391 162.137 292.657 161.968C291.105 161.737 289.573 161.391 288.072 160.933Z" fill="#FD8BA4" stroke="black" stroke-width="3" stroke-linecap="round" stroke-linejoin="round"/>
<path d="M322.254 213.806C322.254 213.806 329.802 213.866 330.958 210.623C330.958 210.623 333.045 215.026 329.932 216.82C326.819 218.614 317.592 218.548 316.347 218.426C315.102 218.304 312.693 216.392 312.693 216.392C312.693 216.392 315.818 213.761 317.555 213.931C319.122 214.006 320.693 213.964 322.254 213.806Z" fill="#FD8BA4" stroke="black" stroke-width="3" stroke-linecap="round" stroke-linejoin="round"/>
<path d="M324.572 237.277C324.572 237.277 328.433 236.398 328.677 233.904C328.922 231.41 330.669 236.194 330.669 236.194C330.669 236.194 329.52 253.385 328.852 254.74C328.184 256.094 325.208 255.9 324.137 254.278C323.066 252.656 324.572 237.277 324.572 237.277Z" fill="#FD8BA4" stroke="black" stroke-width="3" stroke-miterlimit="10"/>
<path d="M329.132 190.72C329.132 190.72 332.993 189.837 333.238 187.343C333.482 184.849 335.228 189.637 335.228 189.637C335.228 189.637 334.08 206.828 333.412 208.183C332.744 209.537 329.768 209.343 328.697 207.721C327.626 206.099 329.132 190.72 329.132 190.72Z" fill="#FD8BA4" stroke="black" stroke-width="3" stroke-miterlimit="10"/>
<path d="M322.835 259.287C322.835 259.287 326.646 258.919 326.79 257.455C326.933 255.991 328.864 258.892 328.864 258.892C328.864 258.892 328.408 269.012 327.797 269.787C327.186 270.561 324.214 270.324 323.082 269.325C321.95 268.326 322.835 259.287 322.835 259.287Z" fill="#FD8BA4" stroke="black" stroke-width="3" stroke-miterlimit="10"/>
<path d="M393.792 44.7019C393.792 44.7019 402.512 49.234 395.549 58.4532C395.549 58.4532 408.468 56.3275 412.987 49.3636C417.506 42.3997 410.394 37.9243 407.403 38.4733C404.413 39.0223 397.942 40.9182 393.792 44.7019Z" fill="black" stroke="black" stroke-width="3" stroke-miterlimit="10"/>
<path d="M407.821 41.3775L414.102 38.7259L425.409 38.9914L410.44 49.2654L407.821 41.3775Z" fill="black" stroke="black" stroke-width="3" stroke-linecap="round" stroke-linejoin="round"/>
<path d="M294.227 297.056C293.627 299.56 294.248 302.324 296.063 305.236C297.881 308.153 300.858 311.147 304.814 314.033C312.723 319.801 324.379 325.012 337.911 328.251C351.443 331.49 364.196 332.121 373.859 330.559C378.693 329.777 382.703 328.455 385.644 326.677C388.581 324.902 390.386 322.719 390.985 320.215C391.585 317.71 390.964 314.946 389.149 312.034C387.331 309.117 384.354 306.123 380.398 303.237C372.49 297.469 360.833 292.258 347.301 289.019C333.769 285.78 321.016 285.149 311.353 286.711C306.519 287.493 302.509 288.815 299.568 290.593C296.631 292.368 294.826 294.551 294.227 297.056Z" fill="#8C74B7" stroke="black" stroke-width="2"/>
<path d="M292.298 276.658C291.698 279.163 292.319 281.927 294.134 284.839C295.952 287.756 298.928 290.75 302.885 293.636C310.793 299.404 322.45 304.615 335.982 307.854C349.514 311.093 362.267 311.724 371.93 310.162C376.764 309.38 380.774 308.058 383.715 306.28C386.652 304.505 388.457 302.322 389.056 299.817C389.656 297.313 389.035 294.549 387.22 291.637C385.402 288.72 382.425 285.726 378.469 282.84C370.56 277.072 358.904 271.861 345.372 268.622C331.84 265.383 319.087 264.752 309.424 266.314C304.59 267.096 300.58 268.418 297.639 270.196C294.702 271.971 292.897 274.154 292.298 276.658Z" fill="black" stroke="black" stroke-width="2"/>
<path d="M327.357 270.325C321.825 268.83 322.319 266.11 323.354 264.758C325.546 264.962 332.766 265.41 336.005 266.292C335.034 266.486 333.718 266.576 336.18 269.128C339.258 272.319 329.191 271.959 335.808 274.247C342.017 276.394 337.372 277.523 335.834 277.262C334.604 277.053 331.777 276.824 330.518 276.736C333.265 274.62 330.803 275.097 328.09 273.061C325.376 271.024 334.273 272.193 327.357 270.325Z" fill="white" stroke="black" stroke-width="2"/>
<path d="M353.366 305.66C358.899 307.155 358.405 309.874 357.369 311.227C355.177 311.022 347.957 310.575 344.718 309.693C345.69 309.498 347.006 309.409 344.544 306.856C341.466 303.665 351.532 304.025 344.915 301.737C338.707 299.59 343.352 298.461 344.89 298.723C346.12 298.932 348.947 299.16 350.206 299.248C347.459 301.365 349.921 300.887 352.634 302.924C355.348 304.96 346.451 303.791 353.366 305.66Z" fill="white" stroke="black" stroke-width="2"/>
<path d="M294.078 286.794C293.479 289.298 294.099 292.062 295.915 294.974C297.733 297.891 300.709 300.886 304.665 303.771C312.574 309.539 324.231 314.751 337.763 317.989C351.294 321.228 364.047 321.859 373.711 320.297C378.544 319.515 382.554 318.193 385.496 316.415C388.433 314.64 390.237 312.457 390.837 309.953C391.436 307.449 390.816 304.685 389.001 301.772C387.183 298.856 384.206 295.861 380.25 292.976C372.341 287.207 360.684 281.996 347.153 278.757C333.621 275.519 320.868 274.887 311.205 276.45C306.371 277.231 302.361 278.554 299.419 280.331C296.482 282.106 294.678 284.29 294.078 286.794Z" stroke="black" stroke-width="2"/>
<path d="M292.298 276.658C291.698 279.163 292.319 281.927 294.134 284.839C295.952 287.756 298.928 290.75 302.885 293.636C310.793 299.404 322.45 304.615 335.982 307.854C349.514 311.093 362.267 311.724 371.93 310.162C376.764 309.38 380.774 308.058 383.715 306.28C386.652 304.505 388.457 302.322 389.056 299.817C389.656 297.313 389.035 294.549 387.22 291.637C385.402 288.72 382.425 285.726 378.469 282.84C370.56 277.072 358.904 271.861 345.372 268.622C331.84 265.383 319.087 264.752 309.424 266.314C304.59 267.096 300.58 268.418 297.639 270.196C294.702 271.971 292.897 274.154 292.298 276.658Z" stroke="black" stroke-width="2"/>
<path d="M317.932 282.794C317.686 283.821 317.926 285.006 318.75 286.328C319.577 287.655 320.953 289.047 322.821 290.41C326.554 293.132 332.089 295.611 338.542 297.156C344.995 298.7 351.053 298.995 355.614 298.258C357.896 297.89 359.753 297.271 361.091 296.462C362.425 295.657 363.175 294.709 363.421 293.682C363.667 292.655 363.427 291.47 362.603 290.148C361.776 288.821 360.4 287.429 358.532 286.066C354.799 283.344 349.264 280.864 342.811 279.32C336.358 277.775 330.3 277.481 325.739 278.217C323.457 278.586 321.6 279.205 320.262 280.014C318.928 280.819 318.178 281.767 317.932 282.794Z" fill="#8C74B7" stroke="black" stroke-width="2"/>
</svg>
