<svg width="522" height="59" viewBox="0 0 522 59" fill="none" xmlns="http://www.w3.org/2000/svg">
<path d="M231.547 19.3123C231.547 21.9683 232.411 25.2003 235.707 25.2003H240.027V21.0403H238.139C236.635 21.0403 236.027 20.6563 236.027 19.3123V13.0403H240.187V9.20029H236.027V2.80029H231.547V9.20029H228.347V13.0403H231.547V19.3123Z" fill="white"/>
<path d="M248.977 10.1923C247.825 10.9923 247.185 12.7523 246.609 14.0323L245.905 13.7123C246.481 12.4323 247.217 10.8003 247.217 9.39229V9.20029H242.737V25.2003H247.217V18.8003C247.217 14.3523 251.537 12.8803 255.633 12.8803V8.72029C252.657 8.72029 250.737 8.97629 248.977 10.1923Z" fill="white"/>
<path d="M258.05 7.28029H262.85V2.80029H258.05V7.28029ZM258.242 25.2003H262.69V9.20029H258.242V25.2003Z" fill="white"/>
<path d="M268.609 19.3123C268.609 21.9683 269.473 25.2003 272.769 25.2003H277.089V21.0403H275.201C273.697 21.0403 273.089 20.6563 273.089 19.3123V13.0403H277.249V9.20029H273.089V2.80029H268.609V9.20029H265.409V13.0403H268.609V19.3123Z" fill="white"/>
<path d="M279.383 17.2003C279.383 22.4803 283.063 25.7123 288.791 25.7123C294.519 25.7123 298.199 22.2243 298.199 17.2003C298.199 12.2083 294.519 8.72029 288.791 8.72029C283.063 8.72029 279.383 11.9203 279.383 17.2003ZM284.183 17.2003C284.183 14.8963 285.367 13.0403 288.791 13.0403C292.183 13.0403 293.399 14.8963 293.399 17.2003C293.399 19.5043 292.183 21.3923 288.791 21.3923C285.367 21.3923 284.183 19.5043 284.183 17.2003Z" fill="white"/>
<path d="M306.442 10.0003C305.322 10.8643 304.874 12.7523 304.362 14.0963L303.626 13.8083C304.138 12.4643 304.842 10.8003 304.842 9.39229V9.20029H300.362V25.2003H304.842V17.4563C304.842 14.5443 306.858 13.2323 309.194 13.2323C311.37 13.2323 312.394 14.5443 312.394 17.4563V25.2003H316.874V14.2243C316.874 10.5763 314.378 8.72029 311.146 8.72029C309.162 8.72029 307.722 9.00829 306.442 10.0003Z" fill="white"/>
<path d="M337.776 25.7123C343.024 25.7123 345.488 22.2883 345.968 20.6243H340.816C340.496 21.2323 339.28 21.9683 337.328 21.9683C334.288 21.9683 332.848 20.0483 332.848 18.4803H346.32C346.352 18.2243 346.32 17.4563 346.32 17.1043C346.352 12.6563 342.768 8.72029 336.944 8.72029C331.312 8.72029 327.344 12.3363 327.344 17.1043C327.344 21.8723 330.992 25.7123 337.776 25.7123ZM332.848 15.6963C332.848 13.8403 334.576 12.1443 337.072 12.1443C339.536 12.1443 341.04 13.6483 341.04 15.6963H332.848Z" fill="white"/>
<path d="M354.817 10.0003C353.697 10.8643 353.249 12.7523 352.737 14.0963L352.001 13.8083C352.513 12.4643 353.217 10.8003 353.217 9.39229V9.20029H348.737V25.2003H353.217V17.4563C353.217 14.5443 355.233 13.2323 357.569 13.2323C359.745 13.2323 360.769 14.5443 360.769 17.4563V25.2003H365.249V14.2243C365.249 10.5763 362.753 8.72029 359.521 8.72029C357.537 8.72029 356.097 9.00829 354.817 10.0003Z" fill="white"/>
<path d="M382.055 23.5363C382.695 22.8643 382.823 21.5523 383.143 20.6883L383.911 20.9443C383.559 21.8403 382.919 22.8963 382.855 23.8243C382.823 24.2083 382.823 24.5923 382.823 25.0403C382.823 27.6323 381.063 29.0403 377.447 29.0403C375.079 29.0403 373.863 28.5283 373.383 26.5123H368.551C368.935 30.5123 371.879 33.2003 377.575 33.2003C384.583 33.2003 387.303 30.0003 387.303 25.6483V9.20029H382.823L382.887 10.4163C382.951 11.3763 383.559 12.4643 383.911 13.3603L383.175 13.6483C382.823 12.7523 382.663 11.4083 381.991 10.7363C380.743 9.45629 378.919 8.72029 376.679 8.72029C371.751 8.72029 368.263 12.3363 368.263 17.1043C368.263 21.8723 371.751 25.7123 376.679 25.7123C378.951 25.7123 380.775 24.8803 382.055 23.5363ZM372.743 17.2963C372.743 14.9283 374.311 13.0723 377.287 13.0723C380.135 13.0723 381.703 14.7363 381.863 16.9443V17.6483C381.703 19.8883 380.135 21.3923 377.287 21.3923C374.311 21.3923 372.743 19.6963 372.743 17.2963Z" fill="white"/>
<path d="M390.612 7.28029H395.412V2.80029H390.612V7.28029ZM390.804 25.2003H395.252V9.20029H390.804V25.2003Z" fill="white"/>
<path d="M404.692 10.0003C403.572 10.8643 403.124 12.7523 402.612 14.0963L401.876 13.8083C402.388 12.4643 403.092 10.8003 403.092 9.39229V9.20029H398.612V25.2003H403.092V17.4563C403.092 14.5443 405.108 13.2323 407.444 13.2323C409.62 13.2323 410.644 14.5443 410.644 17.4563V25.2003H415.124V14.2243C415.124 10.5763 412.628 8.72029 409.396 8.72029C407.412 8.72029 405.972 9.00829 404.692 10.0003Z" fill="white"/>
<path d="M428.026 25.7123C433.274 25.7123 435.738 22.2883 436.218 20.6243H431.066C430.746 21.2323 429.53 21.9683 427.578 21.9683C424.538 21.9683 423.098 20.0483 423.098 18.4803H436.57C436.602 18.2243 436.57 17.4563 436.57 17.1043C436.602 12.6563 433.018 8.72029 427.194 8.72029C421.562 8.72029 417.594 12.3363 417.594 17.1043C417.594 21.8723 421.242 25.7123 428.026 25.7123ZM423.098 15.6963C423.098 13.8403 424.826 12.1443 427.322 12.1443C429.786 12.1443 431.29 13.6483 431.29 15.6963H423.098Z" fill="white"/>
<path d="M448.651 25.7123C453.899 25.7123 456.363 22.2883 456.843 20.6243H451.691C451.371 21.2323 450.155 21.9683 448.203 21.9683C445.163 21.9683 443.723 20.0483 443.723 18.4803H457.195C457.227 18.2243 457.195 17.4563 457.195 17.1043C457.227 12.6563 453.643 8.72029 447.819 8.72029C442.187 8.72029 438.219 12.3363 438.219 17.1043C438.219 21.8723 441.867 25.7123 448.651 25.7123ZM443.723 15.6963C443.723 13.8403 445.451 12.1443 447.947 12.1443C450.411 12.1443 451.915 13.6483 451.915 15.6963H443.723Z" fill="white"/>
<path d="M465.852 10.1923C464.7 10.9923 464.06 12.7523 463.484 14.0323L462.78 13.7123C463.356 12.4323 464.092 10.8003 464.092 9.39229V9.20029H459.612V25.2003H464.092V18.8003C464.092 14.3523 468.412 12.8803 472.508 12.8803V8.72029C469.532 8.72029 467.612 8.97629 465.852 10.1923Z" fill="white"/>
<path d="M474.925 7.28029H479.725V2.80029H474.925V7.28029ZM475.117 25.2003H479.565V9.20029H475.117V25.2003Z" fill="white"/>
<path d="M489.004 10.0003C487.884 10.8643 487.436 12.7523 486.924 14.0963L486.188 13.8083C486.7 12.4643 487.404 10.8003 487.404 9.39229V9.20029H482.924V25.2003H487.404V17.4563C487.404 14.5443 489.42 13.2323 491.756 13.2323C493.932 13.2323 494.956 14.5443 494.956 17.4563V25.2003H499.436V14.2243C499.436 10.5763 496.94 8.72029 493.708 8.72029C491.724 8.72029 490.284 9.00829 489.004 10.0003Z" fill="white"/>
<path d="M516.242 23.5363C516.882 22.8643 517.01 21.5523 517.33 20.6883L518.098 20.9443C517.746 21.8403 517.106 22.8963 517.042 23.8243C517.01 24.2083 517.01 24.5923 517.01 25.0403C517.01 27.6323 515.25 29.0403 511.634 29.0403C509.266 29.0403 508.05 28.5283 507.57 26.5123H502.738C503.122 30.5123 506.066 33.2003 511.762 33.2003C518.77 33.2003 521.49 30.0003 521.49 25.6483V9.20029H517.01L517.074 10.4163C517.138 11.3763 517.746 12.4643 518.098 13.3603L517.362 13.6483C517.01 12.7523 516.85 11.4083 516.178 10.7363C514.93 9.45629 513.106 8.72029 510.866 8.72029C505.938 8.72029 502.45 12.3363 502.45 17.1043C502.45 21.8723 505.938 25.7123 510.866 25.7123C513.138 25.7123 514.962 24.8803 516.242 23.5363ZM506.93 17.2963C506.93 14.9283 508.498 13.0723 511.474 13.0723C514.322 13.0723 515.89 14.7363 516.05 16.9443V17.6483C515.89 19.8883 514.322 21.3923 511.474 21.3923C508.498 21.3923 506.93 19.6963 506.93 17.2963Z" fill="white"/>
<path d="M244.347 49.1256C244.347 42.6616 232.763 44.7096 232.763 42.7576C232.763 41.9256 234.203 41.6056 235.675 41.6056C238.235 41.6056 239.515 42.4056 239.515 43.3336H244.027C244.027 41.3176 242.363 38.0536 235.995 38.0536C230.555 38.0536 228.283 40.3256 228.283 42.8216C228.283 48.3576 239.771 46.7896 239.771 49.3816C239.771 49.9256 239.259 50.8536 236.923 50.8536C233.819 50.8536 232.699 49.4456 232.699 48.7736H228.187C228.187 51.3336 230.203 55.0456 236.347 55.0456C241.851 55.0456 244.347 52.1016 244.347 49.1256Z" fill="white"/>
<path d="M249.172 48.6456C249.172 51.3016 250.036 54.5336 253.332 54.5336H257.652V50.3736H255.764C254.26 50.3736 253.652 49.9896 253.652 48.6456V42.3736H257.812V38.5336H253.652V32.1336H249.172V38.5336H245.972V42.3736H249.172V48.6456Z" fill="white"/>
<path d="M271.21 53.6056C271.882 52.9656 272.106 51.7176 272.426 50.8536L273.162 51.1416C272.842 52.0056 272.234 53.0616 272.202 53.9896V54.5336H276.682V38.5336H272.202V46.6616C272.202 49.7336 270.698 51.1096 268.362 51.1096C266.218 51.1096 264.682 49.9896 264.682 46.6616V38.5336H260.202V49.5096C260.202 53.1256 263.306 55.0136 266.538 55.0136C268.778 55.0136 269.962 54.8216 271.21 53.6056Z" fill="white"/>
<path d="M293.045 39.7816C293.045 40.7416 293.621 41.8616 293.941 42.7576L293.173 43.0136C292.853 42.1176 292.725 40.8056 292.053 40.1336C290.869 38.9176 289.237 38.0536 287.093 38.0536C282.549 38.0536 279.253 42.0216 279.125 46.5656C278.965 51.3016 282.325 55.0456 287.125 55.0456C289.269 55.0456 290.901 54.3096 292.085 53.0616C292.725 52.3896 292.853 51.0456 293.173 50.1496L293.909 50.4056C293.621 51.3016 293.045 52.4216 293.045 53.3816V54.5336L297.525 54.5016V31.3016L293.045 31.3336V39.7816ZM287.829 50.8856C285.141 50.8856 283.605 49.0936 283.605 46.6616C283.605 44.2296 285.141 42.2136 287.829 42.2136C290.517 42.2136 292.085 44.2296 292.085 46.6616C292.085 49.0936 290.517 50.8856 287.829 50.8856Z" fill="white"/>
<path d="M310.401 55.0456C315.649 55.0456 318.113 51.6216 318.593 49.9576H313.441C313.121 50.5656 311.905 51.3016 309.953 51.3016C306.913 51.3016 305.473 49.3816 305.473 47.8136H318.945C318.977 47.5576 318.945 46.7896 318.945 46.4376C318.977 41.9896 315.393 38.0536 309.569 38.0536C303.937 38.0536 299.969 41.6696 299.969 46.4376C299.969 51.2056 303.617 55.0456 310.401 55.0456ZM305.473 45.0296C305.473 43.1736 307.201 41.4776 309.697 41.4776C312.161 41.4776 313.665 42.9816 313.665 45.0296H305.473Z" fill="white"/>
<path d="M327.442 39.3336C326.322 40.1976 325.874 42.0856 325.362 43.4296L324.626 43.1416C325.138 41.7976 325.842 40.1336 325.842 38.7256V38.5336H321.362V54.5336H325.842V46.7896C325.842 43.8776 327.858 42.5656 330.194 42.5656C332.37 42.5656 333.394 43.8776 333.394 46.7896V54.5336H337.874V43.5576C337.874 39.9096 335.378 38.0536 332.146 38.0536C330.162 38.0536 328.722 38.3416 327.442 39.3336Z" fill="white"/>
<path d="M343.672 48.6456C343.672 51.3016 344.536 54.5336 347.832 54.5336H352.152V50.3736H350.264C348.76 50.3736 348.152 49.9896 348.152 48.6456V42.3736H352.312V38.5336H348.152V32.1336H343.672V38.5336H340.472V42.3736H343.672V48.6456Z" fill="white"/>
<path d="M362.094 46.4376C362.094 51.7816 365.55 55.0456 370.926 55.0456C376.174 55.0456 379.182 51.9736 379.726 48.3576H374.894C374.894 48.3576 373.838 50.8216 370.766 50.7896C368.174 50.7896 366.51 49.0296 366.542 46.4056C366.542 43.7496 368.238 42.2776 370.702 42.2776C373.87 42.2456 374.798 44.7096 374.798 44.7096H379.63C379.31 41.2856 376.302 38.0536 370.83 38.0536C365.55 38.0536 362.094 41.0936 362.094 46.4376Z" fill="white"/>
<path d="M381.727 46.5336C381.727 51.8136 385.407 55.0456 391.135 55.0456C396.863 55.0456 400.543 51.5576 400.543 46.5336C400.543 41.5416 396.863 38.0536 391.135 38.0536C385.407 38.0536 381.727 41.2536 381.727 46.5336ZM386.527 46.5336C386.527 44.2296 387.711 42.3736 391.135 42.3736C394.527 42.3736 395.743 44.2296 395.743 46.5336C395.743 48.8376 394.527 50.7256 391.135 50.7256C387.711 50.7256 386.527 48.8376 386.527 46.5336Z" fill="white"/>
<path d="M413.553 53.6056C414.225 52.9656 414.449 51.7176 414.769 50.8536L415.505 51.1416C415.185 52.0056 414.577 53.0616 414.545 53.9896V54.5336H419.025V38.5336H414.545V46.6616C414.545 49.7336 413.041 51.1096 410.705 51.1096C408.561 51.1096 407.025 49.9896 407.025 46.6616V38.5336H402.545V49.5096C402.545 53.1256 405.649 55.0136 408.881 55.0136C411.121 55.0136 412.305 54.8216 413.553 53.6056Z" fill="white"/>
<path d="M428.317 39.3336C427.197 40.1976 426.749 42.0856 426.237 43.4296L425.501 43.1416C426.013 41.7976 426.717 40.1336 426.717 38.7256V38.5336H422.237V54.5336H426.717V46.7896C426.717 43.8776 428.733 42.5656 431.069 42.5656C433.245 42.5656 434.269 43.8776 434.269 46.7896V54.5336H438.749V43.5576C438.749 39.9096 436.253 38.0536 433.021 38.0536C431.037 38.0536 429.597 38.3416 428.317 39.3336Z" fill="white"/>
<path d="M441.219 46.4376C441.219 51.7816 444.675 55.0456 450.051 55.0456C455.299 55.0456 458.307 51.9736 458.851 48.3576H454.019C454.019 48.3576 452.963 50.8216 449.891 50.7896C447.299 50.7896 445.635 49.0296 445.667 46.4056C445.667 43.7496 447.363 42.2776 449.827 42.2776C452.995 42.2456 453.923 44.7096 453.923 44.7096H458.755C458.435 41.2856 455.427 38.0536 449.955 38.0536C444.675 38.0536 441.219 41.0936 441.219 46.4376Z" fill="white"/>
<path d="M461.3 36.6136H466.1V32.1336H461.3V36.6136ZM461.492 54.5336H465.94V38.5336H461.492V54.5336Z" fill="white"/>
<path d="M469.299 50.6616C469.299 53.0616 471.475 54.5336 475.251 54.5336H477.779V50.3736H475.923C474.419 50.3736 473.811 49.9896 473.811 48.6456V31.3336H469.299V50.6616Z" fill="white"/>
<path d="M27.36 57.2V13.84H41.28V1.2H0V13.84H13.92V57.2H27.36Z" fill="white"/>
<path d="M48.8506 57.2H89.8906V44.56H61.8106V35.2H87.4906V22.56H61.8106V13.84H89.4906V1.2H48.8506V57.2Z" fill="white"/>
<path d="M143.441 7.84C134.481 1.68 127.201 0 119.361 0C103.841 0 93.6813 7.12 93.6813 15.36C93.6813 32.96 128.401 32.8 128.401 40.96C128.401 43.92 124.961 45.92 119.041 45.92C108.961 45.92 105.841 43.6 101.121 39.76L92.0812 48.24C100.801 56.4 106.881 58.4 116.641 58.4C134.561 58.4 145.761 50.96 145.761 41.12C145.761 20.32 108.641 21.44 108.641 14.64C108.641 12.32 111.761 10.8 115.601 10.8C123.201 10.8 129.041 12.24 134.641 16.64L143.441 7.84Z" fill="white"/>
<path d="M180.452 58.4C199.332 58.4 206.692 50.56 208.052 37.2H194.692C193.652 40.24 192.452 45.28 180.052 45.28C171.092 45.28 163.492 41.04 163.492 29.2C163.492 17.28 171.172 13.12 180.212 13.12C191.732 13.12 192.852 18.08 193.812 21.2H207.172C206.532 10.72 199.892 0 179.892 0C162.692 0 150.052 12.48 149.972 29.12C150.052 45.84 162.932 58.4 180.452 58.4Z" fill="white"/>
</svg>
